<svg xmlns="http://www.w3.org/2000/svg" width="16.533" height="17.911" viewBox="0 0 16.533 17.911">
  <g id="calendar" transform="translate(-24 -12)">
    <path id="Path_5" data-name="Path 5" d="M39.155,13.378H36.4V12H35.022v1.378H29.511V12H28.133v1.378H25.378A1.382,1.382,0,0,0,24,14.756V28.533a1.382,1.382,0,0,0,1.378,1.378H39.155a1.382,1.382,0,0,0,1.378-1.378V14.756A1.382,1.382,0,0,0,39.155,13.378Zm0,15.155H25.378V18.889H39.155Zm0-11.022H25.378V14.756h2.756v1.378h1.378V14.756h5.511v1.378H36.4V14.756h2.756Z"/>
  </g>
</svg>
