<svg xmlns="http://www.w3.org/2000/svg" width="90" height="90" viewBox="0 0 90 90">
  <g id="Group_64" data-name="Group 64" transform="translate(-5600 -4402)">
    <g id="Ellipse_5" data-name="Ellipse 5" transform="translate(5600 4402)" fill="#f5941f" stroke="#fff" stroke-width="5">
      <circle cx="45" cy="45" r="45" stroke="none"/>
      <circle cx="45" cy="45" r="42.5" fill="none"/>
    </g>
    <g id="wood-svgrepo-com" transform="translate(5626 4374.141)">
      <g id="Group_52" data-name="Group 52" transform="translate(-1 57.859)">
        <g id="Group_51" data-name="Group 51">
          <path id="Path_40" data-name="Path 40" d="M38.006,66.445,18.963,57.908a.72.72,0,0,0-.525,0L-.606,66.445A.574.574,0,0,0-1,67.036V87.392a.62.62,0,0,0,.657.657H37.743a.62.62,0,0,0,.657-.657V67.036A.631.631,0,0,0,38.006,66.445ZM6.88,84.766a1.97,1.97,0,1,1,1.97,1.97A1.935,1.935,0,0,1,6.88,84.766Zm0-5.253a1.97,1.97,0,1,1,1.97,1.97A1.935,1.935,0,0,1,6.88,79.512Zm21.67,1.97H21.342a3.281,3.281,0,0,0,.638-1.828c0-.047,0-.095,0-.142s0-.095,0-.142a3.281,3.281,0,0,0-.638-1.828H28.55a1.97,1.97,0,0,1,0,3.94ZM12.13,84.908c0-.047,0-.095,0-.142s0-.095,0-.142a3.281,3.281,0,0,0-.638-1.828h4.565a3.281,3.281,0,0,0-.638,1.828c0,.047,0,.095,0,.142s0,.095,0,.142a3.281,3.281,0,0,0,.638,1.828H11.492A3.282,3.282,0,0,0,12.13,84.908Zm4.6-.142a1.97,1.97,0,1,1,1.97,1.97A1.935,1.935,0,0,1,16.73,84.766Zm3.94-5.253a1.97,1.97,0,1,1-1.97-1.97A1.935,1.935,0,0,1,20.67,79.512Zm-5.25-.142c0,.047,0,.095,0,.142s0,.095,0,.142a3.281,3.281,0,0,0,.638,1.828H11.492a3.281,3.281,0,0,0,.638-1.828c0-.047,0-.095,0-.142s0-.095,0-.142a3.281,3.281,0,0,0-.638-1.828h4.565A3.282,3.282,0,0,0,15.42,79.37Zm5.922,7.365a3.281,3.281,0,0,0,.638-1.828c0-.047,0-.095,0-.142s0-.095,0-.142a3.281,3.281,0,0,0-.638-1.828H28.55a1.97,1.97,0,0,1,0,3.94Zm9.85,0a3.328,3.328,0,0,0-.652-4.6,3.294,3.294,0,0,0-1.99-5.91H8.85a3.294,3.294,0,0,0-1.99,5.91,3.328,3.328,0,0,0-.652,4.6H4.253V75.572H33.146V86.735H31.192Zm1.954-12.477H4.253V70.976H33.146Zm3.94,12.477H34.46V70.319a.62.62,0,0,0-.657-.657H3.6a.62.62,0,0,0-.657.657V86.736H.313V67.43L18.7,59.221,37.086,67.43Z" transform="translate(1 -57.859)" fill="#fff"/>
          <path id="Path_41" data-name="Path 41" d="M202.413,116.4a1.935,1.935,0,0,0-1.97,1.97v1.97a1.935,1.935,0,0,0,1.97,1.97h3.94a1.935,1.935,0,0,0,1.97-1.97v-1.97a1.935,1.935,0,0,0-1.97-1.97h-3.94Zm-.657,3.94v-1.97a.62.62,0,0,1,.657-.657h1.313V121h-1.313A.62.62,0,0,1,201.756,120.343Zm5.253-1.97v1.97a.62.62,0,0,1-.657.657H205.04v-3.283h1.313A.62.62,0,0,1,207.01,118.373Z" transform="translate(-184.683 -111.823)" fill="#fff"/>
        </g>
      </g>
    </g>
  </g>
</svg>
