<svg xmlns="http://www.w3.org/2000/svg" viewBox="0 0 32 32"><path d="M22.8 27.8c-.3 0-.5-.1-.6-.3l-5.3-8.2-2.8 2.7.8 2.3c.1.3 0 .6-.2.8l-2.1 2.1c-.2.2-.4.2-.6.2s-.4-.1-.6-.3l-2.7-3.8-3.8-2.7c-.2-.1-.3-.3-.3-.5s.1-.4.2-.6l2.1-2.1c.2-.2.5-.3.8-.2l2.3.8 3.4-3.4c.3-.3.8-.3 1.1 0s.3.8 0 1.1l-3.8 3.8c-.2.2-.5.3-.8.2l-2.3-.8L6.4 20l3.2 2.2c.1 0 .1.1.2.2l2.3 3.2 1.1-1.1-.7-2.5c-.1-.3 0-.6.2-.8l3.8-3.8c.2-.2.4-.2.6-.2.2 0 .4.1.5.3l5.2 8.1 1.2-1.5-3.7-10c-.1-.3 0-.6.2-.8L25.9 8c.5-.5.5-1.4 0-1.9s-1.4-.5-1.9 0l-5.4 5.4c-.2.2-.5.3-.8.2L7.8 8 6.3 9.2l6.3 4c.4.2.4.7.2 1-.2.4-.7.4-1 .2L4.6 9.9c-.2-.2-.3-.4-.4-.6s.1-.5.3-.6l2.7-2.1c.2-.2.5-.2.7-.1l10 3.7 5-5c1.1-1.1 3-1.1 4 0 1.1 1.1 1.1 2.9 0 4l-5 5 3.7 10c.1.2 0 .5-.1.7l-2.1 2.7c-.2 0-.4.2-.6.2z"/></svg>