<svg xmlns="http://www.w3.org/2000/svg" width="20" height="20"><g xmlns="http://www.w3.org/2000/svg"><path fill="#1A3464" d="M5.15 9.15C2.31 9.15 0 11.46 0 14.3c0 2.84 2.31 5.16 5.15 5.16 2.84 0 5.15-2.31 5.15-5.16a5.15 5.15 0 0 0-5.15-5.15Zm0 9.31C2.86 18.46 1 16.6 1 14.3s1.86-4.15 4.15-4.15S9.3 12.01 9.3 14.3s-1.86 4.16-4.15 4.16ZM8.81.54C7.1.54 5.72 1.93 5.72 3.63s1.39 3.09 3.09 3.09 3.09-1.39 3.09-3.09S10.51.54 8.81.54Zm0 5.19c-1.15 0-2.09-.94-2.09-2.09s.94-2.09 2.09-2.09 2.09.94 2.09 2.09-.94 2.09-2.09 2.09Zm7.73-.86a3.461 3.461 0 0 0 0 6.92 3.461 3.461 0 0 0 0-6.92Zm0 5.93c-1.36 0-2.46-1.11-2.46-2.46 0-1.35 1.11-2.46 2.46-2.46 1.35 0 2.46 1.11 2.46 2.46 0 1.35-1.1 2.46-2.46 2.46Z"/><path fill="#FFAA1D" d="M6.38 11.19a.5.5 0 1 0-.44.9c.72.35 1.21 1.16 1.27 2.1.06.9-.29 1.69-.93 2.11a.5.5 0 0 0 .27.92c.09 0 .19-.03.27-.08.94-.62 1.46-1.74 1.38-3-.08-1.3-.78-2.42-1.83-2.94l.01-.01Zm11.05-4.6a.5.5 0 1 0-.44.9c.32.16.45.52.47.8.02.34-.1.64-.33.79a.5.5 0 0 0 .27.92c.09 0 .19-.03.27-.08.54-.35.83-.98.79-1.69-.04-.72-.44-1.35-1.03-1.64Z"/></g></svg>