<svg xmlns="http://www.w3.org/2000/svg" xml:space="preserve" style="enable-background:new 0 0 32 32" viewBox="0 0 32 32"><path d="M26.2 15.7c-.3-.3-.8-.3-1.1 0l-8.9 8.4c-2.2 2-5.6 2-7.7-.2-2.1-2.2-2-5.6.2-7.7l.5-.5 6.4-6.1 2-1.9.4-.4c1.4-1.3 3.6-1.2 4.9.1 1.3 1.4 1.2 3.6-.1 4.9l-7.1 6.8-2 1.9c-.5.4-1.2.4-1.6 0-.2-.2-.3-.5-.3-.8s.1-.6.4-.8l6.1-5.8c.3-.3.3-.8 0-1.1-.3-.3-.8-.3-1.1 0L11 18.3c-.5.5-.8 1.1-.8 1.9 0 .7.2 1.4.7 1.9.5.5 1.2.8 1.9.8s1.3-.2 1.8-.7l5.3-5 3.9-3.7c2-1.9 2.1-5 .2-7s-5-2.1-7-.2l-2.4 2.3-6.9 6.6c-2.8 2.6-2.9 7-.3 9.8 1.4 1.4 3.2 2.2 5 2.2 1.7 0 3.4-.6 4.8-1.9l8.9-8.4c.4-.5.4-.9.1-1.2z"/></svg>