<svg xmlns="http://www.w3.org/2000/svg" viewBox="0 0 20 20"><path d="M19.3 7.37c.09 0 .18-.03.25-.08a.49.49 0 0 0 .44-.49V3.69c0-.28-.22-.5-.5-.5h-3.35V.5c.01-.28-.22-.5-.49-.5H8.1c-.21 0-.39.13-.46.31a.47.47 0 0 0-.08.26v2.62H4.4c-.09 0-.18.03-.25.08a.49.49 0 0 0-.44.49v2.56H.55c-.21 0-.39.13-.46.31a.47.47 0 0 0-.08.26V10c0 .28.22.5.5.5H3.7v2.17H.55c-.21 0-.39.13-.46.31a.47.47 0 0 0-.08.26v3.11c0 .28.22.5.5.5H3.9v2.65c0 .28.22.5.5.5h15.1c.28 0 .5-.22.5-.5v-3.11c0-.28-.22-.5-.5-.5h-3.35v-2.27h3.16c.09 0 .18-.03.25-.08a.49.49 0 0 0 .44-.49V9.94c0-.28-.22-.5-.5-.5h-3.35V7.36h3.16Zm-4.2 2.06H8.6V7.39h6.5v2.04Zm3.7 3.13h-6.35v-2.04h6.35v2.04ZM1.05 13.74h6.5v2.04h-6.5v-2.04Zm0-6.35h6.5v2.04h-6.5V7.39ZM4.9 4.26h6.35V6.3H4.9V4.26ZM18.8 6.3h-6.35V4.26h6.35V6.3Zm-7.55 4.22v2.04H4.9v-2.04h6.35ZM8.6 15.78v-2.04h6.5v2.04H8.6Zm6.5-14.71v2.04H8.6V1.07h6.5ZM11.44 19H4.9v-2.1h6.54V19Zm7.55 0h-6.54v-2.1h6.54V19Z"/></svg>