<svg xmlns="http://www.w3.org/2000/svg" width="20" height="20"><path d="M17.19.08H2.81C1.3.08.07 1.31.07 2.82V17.2c0 1.51 1.23 2.74 2.74 2.74h14.38c1.51 0 2.74-1.23 2.74-2.74V2.82c0-1.51-1.23-2.74-2.74-2.74Zm.74 17.12c0 .41-.33.74-.74.74H2.81c-.41 0-.74-.33-.74-.74V2.82c0-.41.33-.74.74-.74h14.38c.41 0 .74.33.74.74V17.2ZM4.77 5.31c-.5 0-.9.4-.9.9s.4.9.9.9h3.29c.5 0 .9-.4.9-.9s-.4-.9-.9-.9H4.77Zm11.65 6.27c0 .5-.4.9-.9.9h-3.29c-.5 0-.9-.4-.9-.9s.4-.9.9-.9h3.29c.5 0 .9.4.9.9Zm-.9 4.04c.5 0 .9-.4.9-.9s-.4-.9-.9-.9h-3.29c-.5 0-.9.4-.9.9s.4.9.9.9h3.29Zm-3.68-8.65.76-.76-.76-.76a.9.9 0 0 1 0-1.27.9.9 0 0 1 1.27 0l.76.76.76-.76a.9.9 0 0 1 1.27 0 .9.9 0 0 1 0 1.27l-.76.76.76.76a.9.9 0 0 1 0 1.27c-.18.18-.41.26-.64.26-.23 0-.46-.09-.64-.26l-.76-.76-.76.76c-.18.18-.41.26-.64.26-.23 0-.46-.09-.64-.26a.9.9 0 0 1 0-1.27h.02Zm-3.4 7.17c.5 0 .9-.4.9-.9s-.4-.9-.9-.9H7.36v-1.08c0-.5-.4-.9-.9-.9s-.9.4-.9.9v1.08H4.48c-.5 0-.9.4-.9.9s.4.9.9.9h1.08v1.08c0 .5.4.9.9.9s.9-.4.9-.9v-1.08h1.08Z"/></svg>