<svg xmlns="http://www.w3.org/2000/svg" viewBox="0 0 20 20"><path d="m19.12 6.79.78-5.31a.5.5 0 0 0-.5-.57h-8.53a.5.5 0 0 0-.5.57l.86 5.63H8.77l.85-5.63a.5.5 0 0 0-.5-.57H.6a.5.5 0 0 0-.38.17c-.09.11-.14.26-.12.4l.78 5.29-.87 4.01a.508.508 0 0 0 .49.61h4.84l.36 2.45-1.01 4.65c-.03.15 0 .3.1.42.09.12.24.19.39.19h9.89a.508.508 0 0 0 .49-.61l-.87-4 .45-3.1h4.36a.508.508 0 0 0 .49-.61l-.87-3.99Zm-18 3.6.44-2.04s.02.02.03.02c.09.07.21.1.32.1.16 0 .31-.07.41-.2.16-.23.13-.52-.1-.67 0 0-.17-.2-.35-.94l-.69-4.75h7.37l-.78 5.16v.04H5.3a.5.5 0 0 0-.38.17c-.09.11-.14.26-.12.4l.39 2.7H1.12Zm4.68 7.7.57-2.61c.05.05.09.09.13.12.09.06.2.1.31.1.16 0 .31-.07.41-.2.16-.23.13-.52-.1-.68 0 0-.2-.23-.42-1.11l-.82-5.59h8.72l-.92 6.28c-.2.8-.39 1.06-.42 1.1a.495.495 0 0 0 .33.87c.1 0 .2-.03.29-.09.04-.03.08-.07.14-.13l.42 1.93H5.8Zm9.48-7.7.39-2.7a.5.5 0 0 0-.5-.57h-2.94l-.8-5.2h7.38l-.69 4.72v.02c-.16.67-.32.89-.35.93-.19.17-.22.45-.07.66.1.14.25.21.41.21.1 0 .2-.03.29-.09 0 0 .02-.02.03-.02l.44 2.04h-3.6Z"/></svg>