<svg xmlns="http://www.w3.org/2000/svg" width="20" height="20"><path d="M16.654 1c1.707 0 3.135 1.193 3.325 2.758l.016.176.005.17v8.703c0 1.588-1.303 2.905-2.977 3.078l-.187.015-.182.005-7.133-.001-3.784 2.719-.084.051-.092.044-.103.037-.143.03-.128.01a1.02 1.02 0 0 1-.435-.104.96.96 0 0 1-.492-.615l-.024-.118-.007-.116-.002-1.944h-.875c-1.577 0-2.925-1.015-3.269-2.41l-.036-.17-.026-.173-.016-.174L0 12.8V4.098c0-1.592 1.3-2.906 2.982-3.079l.188-.014L3.352 1h13.302Zm-.083 2H3.436c-.707 0-1.293.43-1.413.973l-.017.11-.006.11v8.514c0 .57.494 1.068 1.163 1.172l.136.016.137.005h1.751c.44 0 .821.303.93.73l.02.11.008.112v1.029l2.517-1.81a.967.967 0 0 1 .305-.138l.117-.024.129-.009h7.358c.704 0 1.287-.43 1.406-.972l.017-.11.006-.11V4.192C18 3.546 17.368 3 16.57 3ZM10 9.398c.526 0 .958.428.958.952 0 .44-.306.818-.736.925l-.11.02-.112.008H4.933a.959.959 0 0 1-.958-.953c0-.44.306-.817.736-.924l.11-.02.112-.008H10Zm5.06-3.961a.96.96 0 0 1 .965.952c0 .44-.306.817-.736.924l-.11.021-.112.007H4.933a.959.959 0 0 1-.958-.952c0-.44.306-.817.736-.924l.11-.021.112-.007h10.128Z"/></svg>