<svg xmlns="http://www.w3.org/2000/svg" width="18" height="18" fill="none"><g clip-path="url(#clip0_1772_15489)"><path fill="#222" fill-rule="evenodd" d="M3.01 13.363a.946.946 0 0 1 .662-.265v-.02h3.52a6.911 6.911 0 0 0-.038.625c0 .209 0 .436.038.625H3.748L1.647 16.24c-.17.17-.417.246-.663.246a.988.988 0 0 1-.397-.076A1.007 1.007 0 0 1 0 15.5V.984C0 .435.435 0 .984 0h11.508c.549 0 .984.435.984.984v7.098c-.208-.019-.416-.038-.624-.038-.209 0-.436 0-.625.038V1.249H1.249v13.704l1.76-1.59Zm.02-3.445a.13.13 0 0 1 .132-.133h5.583a5.38 5.38 0 0 0-1.022 1.495H3.162a.13.13 0 0 1-.133-.132v-1.23Zm7.343-6.7a.13.13 0 0 0-.133-.133H3.162a.13.13 0 0 0-.133.133v1.23a.13.13 0 0 0 .133.132h7.078a.13.13 0 0 0 .133-.132v-1.23ZM3.162 6.435h7.078a.13.13 0 0 1 .133.133v1.23a.13.13 0 0 1-.133.133H3.162a.13.13 0 0 1-.133-.133v-1.23a.13.13 0 0 1 .133-.133Zm9.67 3.01a4.285 4.285 0 0 0-4.277 4.277A4.273 4.273 0 0 0 12.833 18a4.273 4.273 0 0 0 4.277-4.278 4.273 4.273 0 0 0-4.277-4.277Zm0 7.287a3.037 3.037 0 0 1-3.028-3.028 3.037 3.037 0 0 1 3.029-3.029 3.037 3.037 0 0 1 3.028 3.028 3.025 3.025 0 0 1-3.028 3.029Zm-.398-2.953 1.193-1.344a.628.628 0 0 1 .89-.038.607.607 0 0 1 .056.871l-1.628 1.836a.605.605 0 0 1-.454.208h-.02a.617.617 0 0 1-.434-.19l-1.004-1.002a.606.606 0 0 1 0-.87.606.606 0 0 1 .871 0l.53.529Z" clip-rule="evenodd"/></g></svg>