<svg xmlns="http://www.w3.org/2000/svg" xml:space="preserve" id="Layer_1" x="0" y="0" style="enable-background:new 0 0 20 20" version="1.1" viewBox="0 0 20 20"><style>.st1,.st2{fill:none;stroke:#000;stroke-width:2;stroke-miterlimit:10}.st2{stroke-linecap:round;stroke-linejoin:round}.st4{fill:#d4d8d2}</style><path d="M15.08 10.53c0 .55-.45 1-1 1H9.63c-.55 0-1-.45-1-1V5.38c0-.55.45-1 1-1s1 .45 1 1v4.16h3.45c.55-.01 1 .44 1 .99zM20 10c0 5.51-4.49 10-10 10S0 15.51 0 10 4.49 0 10 0s10 4.49 10 10zm-2 0c0-4.41-3.59-8-8-8s-8 3.59-8 8 3.59 8 8 8 8-3.59 8-8z" style="fill:#333"/></svg>