<svg xmlns="http://www.w3.org/2000/svg" viewBox="0 0 20 20"><path d="M10.09 11.68s-.04.06-.07.09c-.68.68-1.37 1.37-2.09 2.1-.33-.28-.68-.52-.98-.82-2.01-2.01-2.04-5.3-.06-7.33 1.39-1.43 2.78-2.85 4.23-4.22C12.65.03 14.5-.36 16.49.34c2 .71 3.17 2.19 3.46 4.3.22 1.64-.27 3.08-1.41 4.27-.89.94-1.83 1.84-2.74 2.76-.03.03-.06.05-.12.1.02-.27.05-.5.06-.73a6.28 6.28 0 0 0-.43-2.71c-.05-.13-.03-.21.07-.3.38-.38.78-.75 1.14-1.15 1.22-1.36.56-3.5-1.22-3.92-.88-.21-1.65.05-2.29.68-.92.91-1.83 1.83-2.75 2.75-.45.45-.92.89-1.35 1.37-1.03 1.14-.71 2.94.63 3.67.18.1.37.16.56.25Z"/><path d="M9.93 8.33c.68-.68 1.37-1.37 2.06-2.04.04-.04.18-.04.23 0 1.24.82 2.02 1.96 2.28 3.43.33 1.84-.19 3.43-1.5 4.75-1.32 1.33-2.64 2.66-3.98 3.98-2.78 2.74-7.39 1.74-8.68-1.91-.71-1.99-.32-3.83 1.12-5.39.89-.96 1.85-1.86 2.77-2.79.02-.02.05-.04.11-.09 0 .11 0 .19-.02.27-.13 1.07-.02 2.12.38 3.13.06.16.04.25-.08.36-.38.37-.77.74-1.12 1.13a2.38 2.38 0 0 0 1.24 3.92c.8.19 1.52 0 2.13-.55.46-.41.88-.86 1.32-1.3.93-.93 1.87-1.86 2.8-2.8 1.11-1.13.95-2.9-.35-3.73-.21-.14-.46-.23-.72-.35Z"/></svg>