<svg xmlns="http://www.w3.org/2000/svg" width="20" height="20"><g xmlns="http://www.w3.org/2000/svg"><path fill="#1A3464" d="M10.25 20c-1.46 0-2.67-.15-3.69-.46H3.51c-.28 0-.5-.22-.5-.5v-1.62C2.31 15.64 2 12.42 2 10s.35-4.75 1.01-6.41V1.14c0-.28.22-.5.5-.5h2.55C7.19.21 8.56 0 10.25 0c1.69 0 2.96.21 4.07.64h2.8c.28 0 .5.22.5.5v3.07c.48 1.54.72 3.49.72 5.79 0 2.05-.23 5-.72 6.67v2.38c0 .28-.22.5-.5.5h-3.34c-.99.31-2.15.46-3.52.46l-.01-.01Zm-6.24-1.46h2.63c.05 0 .1 0 .15.02.94.29 2.08.44 3.47.44 1.31 0 2.38-.14 3.29-.44.05-.02.1-.02.15-.02h2.92v-1.95s0-.1.02-.15c.46-1.49.7-4.37.7-6.44 0-2.24-.23-4.11-.7-5.56-.02-.05-.02-.1-.02-.15V1.64h-2.39c-.06 0-.13-.01-.19-.04-1-.4-2.24-.6-3.79-.6-1.55 0-2.89.2-3.91.6-.06.02-.12.04-.18.04H4.01v2.05c0 .07-.01.13-.04.19C3.33 5.43 3 7.55 3 10c0 2.3.31 5.51.97 7.14.02.06.04.12.04.19v1.21Z"/><path fill="#FFAA1D" d="M11.93 10.82H8v2.43h3.93v-2.43Z"/><path fill="#FFAA1D" d="M11.93 10.82H8v2.43h3.93v-2.43Zm0-3.81H8v2.43h3.93V7.01Z"/></g></svg>