<svg xmlns="http://www.w3.org/2000/svg" viewBox="0 0 20 20"><defs><linearGradient id="a" x1="15.58" x2="2.37" y1="-.13" y2="23.87" gradientUnits="userSpaceOnUse"><stop offset="0" stop-color="#e40543"/><stop offset=".44" stop-color="#753ea5"/><stop offset=".53" stop-color="#9e95a6"/><stop offset="1" stop-color="#cbcbcb"/></linearGradient></defs><path d="M16.59 0H3.41C1.95 0 .75 1.19.75 2.66v14.68C.75 18.81 1.94 20 3.41 20h13.17c1.47 0 2.66-1.19 2.66-2.66V2.66A2.65 2.65 0 0 0 16.59 0Zm1.02 17.34c0 .56-.46 1.02-1.02 1.02H3.41c-.56 0-1.02-.46-1.02-1.02V2.66c0-.56.46-1.02 1.02-1.02h13.17c.56 0 1.02.46 1.02 1.02v14.68ZM14.96 4.37v3.19c0 .24-.2.44-.44.44H5.53c-.24 0-.44-.2-.44-.44V4.37c0-.24.2-.44.44-.44h8.99c.24 0 .44.2.44.44ZM7.82 10.2v2c0 .21-.17.38-.38.38h-2a.38.38 0 0 1-.38-.38v-2c0-.21.17-.38.38-.38h2c.21 0 .38.17.38.38Zm3.54 0v2c0 .21-.17.38-.38.38h-2a.38.38 0 0 1-.38-.38v-2c0-.21.17-.38.38-.38h2c.21 0 .38.17.38.38Zm3.54 0v2c0 .21-.17.38-.38.38h-2a.38.38 0 0 1-.38-.38v-2c0-.21.17-.38.38-.38h2c.21 0 .38.17.38.38Zm-7.07 3.64v2c0 .21-.17.38-.38.38h-2a.38.38 0 0 1-.38-.38v-2c0-.21.17-.38.38-.38h2c.21 0 .38.17.38.38Zm3.54 0v2c0 .21-.17.38-.38.38h-2a.38.38 0 0 1-.38-.38v-2c0-.21.17-.38.38-.38h2c.21 0 .38.17.38.38Zm3.54 0v2c0 .21-.17.38-.38.38h-2a.38.38 0 0 1-.38-.38v-2c0-.21.17-.38.38-.38h2c.21 0 .38.17.38.38Z" style="fill:url(#a)"/></svg>