<svg xmlns="http://www.w3.org/2000/svg" viewBox="0 0 20 20"><path d="M12.69 11.31c-.22 0-.43.07-.6.2-1.44 1.08-2.73 1.08-4.17 0a.984.984 0 0 0-.6-.2c-4.03 0-7.31 3.45-7.31 7.68 0 .56.45 1.01 1 1.01H19c.55 0 1-.45 1-1.01 0-4.24-3.28-7.68-7.31-7.68ZM2.08 17.99c.43-2.55 2.45-4.51 4.92-4.66 1.96 1.34 4.02 1.34 5.98 0 2.47.15 4.5 2.11 4.92 4.66H2.08ZM10 10.25c2.43 0 4.39-1.98 4.39-4.42v-1.4c0-2.44-1.97-4.42-4.39-4.42-2.43 0-4.39 1.98-4.39 4.42v1.4c0 2.44 1.97 4.42 4.39 4.42ZM7.61 4.43c0-1.33 1.07-2.41 2.39-2.41s2.39 1.08 2.39 2.41v1.4c0 1.33-1.07 2.41-2.39 2.41S7.61 7.16 7.61 5.83v-1.4Zm7.09 11.28c0 .07.02.13.02.2a.995.995 0 0 1-.3.7.976.976 0 0 1-1.41 0 .995.995 0 0 1-.3-.7c0-.07.01-.13.02-.2.02-.06.04-.13.06-.19.03-.06.06-.12.09-.17.04-.05.08-.11.13-.15a.99.99 0 0 1 .9-.27c.06 0 .13.03.19.05.06.03.11.06.17.09.05.04.1.08.15.13.05.04.09.1.13.15.03.05.06.11.09.17.02.06.04.13.06.19Z"/></svg>