<svg xmlns="http://www.w3.org/2000/svg" viewBox="0 0 20 20"><defs><linearGradient id="a" x1="14.64" x2="3.16" y1=".5" y2="21.89" gradientUnits="userSpaceOnUse"><stop offset="0" stop-color="#e40543"/><stop offset=".44" stop-color="#753ea5"/><stop offset=".53" stop-color="#9e95a6"/><stop offset="1" stop-color="#cbcbcb"/></linearGradient></defs><path d="M14.85 17.81c.22.69.42 1.35-.01 1.84-.22.25-.51.34-.83.34-.44 0-.95-.17-1.45-.34-.15-.05-.28-.1-.36-.12-.34 0-.74.05-1.24.11-.85.1-1.91.22-3.34.22s-2.41-.12-3.25-.22c-.48-.06-.91-.11-1.25-.11-.09.02-.22.07-.36.12-.86.29-1.76.59-2.28 0-.43-.5-.23-1.15-.03-1.78.08-.27.2-.64.2-.81-.01-.5-.07-1.09-.15-1.77-.13-1.26-.3-2.82-.26-4.81.02-.96.05-1.81.09-2.56v-.07c0-.04 0-.08.01-.11.12-2.35.3-3.63.32-3.76.02-.49 0-.87-.03-1.02-.05-.13-.12-.29-.19-.44C.13 1.86-.24 1.05.32.39.9-.29 1.84.09 2.52.36c.16.06.3.13.41.15.25 0 .62-.07 1.08-.15.8-.14 1.9-.34 3.61-.34 1.54 0 2.66.18 3.55.33.53.09.95.16 1.3.16.03-.02.17-.08.34-.15.67-.27 1.69-.69 2.24.09.46.64.1 1.42-.22 2.11-.12.27-.33.73-.33.88.06.27.11.7.15 1.11.03.25.05.48.08.65.07.44-.23.85-.67.92a.803.803 0 0 1-.92-.67c-.03-.19-.06-.45-.09-.73-.04-.34-.08-.76-.12-.96-.14-.62.15-1.26.44-1.88v-.03c-.34.14-.62.25-.9.25-.47 0-.98-.08-1.56-.18-.84-.14-1.88-.31-3.29-.31-1.57 0-2.54.17-3.32.31-.52.09-.97.17-1.44.17-.29 0-.57-.12-.94-.26h-.03c.08.18.16.36.23.54.31.8.03 3.7-.19 5.48-.04.77-.07 1.65-.09 2.64-.03 1.88.13 3.4.25 4.61.08.72.14 1.34.15 1.9 0 .39-.1.8-.22 1.18.08-.03.15-.05.21-.07.41-.14.61-.2.82-.2.45 0 .93.06 1.49.12.79.09 1.78.21 3.06.21s2.34-.12 3.15-.21c.56-.06 1.04-.12 1.49-.12.21 0 .41.07.82.2.06.02.13.04.21.07-.13-.44-.23-.82-.22-1.18.01-.44.37-.79.8-.79h.02c.44.01.8.38.79.82 0 .17.11.55.18.75Zm4.88-.01c-.16.16-.36.24-.57.24s-.41-.08-.57-.23l-2.92-2.9c-.83.69-1.88 1.12-3.03 1.12-2.63 0-4.78-2.14-4.78-4.78a4.78 4.78 0 1 1 9.56 0c0 .89-.26 1.72-.69 2.44l3.01 2.98c.32.31.32.82 0 1.14Zm-3.93-6.56a3.171 3.171 0 0 0-6.34 0 3.171 3.171 0 0 0 6.34 0Z" style="fill:url(#a)"/></svg>