<svg xmlns="http://www.w3.org/2000/svg" width="20" height="20" fill="none"><g clip-path="url(#a)"><g clip-path="url(#b)"><g clip-path="url(#c)"><path fill="#1A3464" d="M19.11 10.18c-.14-.54-.31-1.16-.49-1.78-.41-1.44-.88-3.08-.81-3.77.11-1.12.24-2.5-.33-3.45-.31-.51-.98-.92-1.8-1.1-.31-.07-1.1-.18-1.59.16-.51.36-1.39 1.39-1.37 2.08-.03.04-.08.1-.11.15-.22.28-.63.79-.38 1.5.26.74 1.47 1.41 2.13 1.73-.02.54-.12 1.8-.71 3.56a9.49 9.49 0 0 0-.51 3.28c-1.14-.84-3.01-1.99-5.09-2.01-1.36-.03-2.33.24-2.88.47a.492.492 0 0 0-.48-.4H1.1a.48.48 0 0 0-.37.17c-.1.11-.14.25-.12.39l.63 5.11c.03.27.29.47.56.43.27-.03.47-.28.44-.56l-.56-4.54h2.56l.8 7.4H2.15c-.28 0-.5.22-.5.5s.22.5.5.5h3.43c.08 0 .49.02 1.06.02 1.19 0 3.06-.07 4.12-.47.1-.04.18-.08.27-.12h.04c3.81 0 6.48-.29 7.17-1.72.53-1.1.41-2.04.3-2.49 1.02-1.22 1.01-3.29.57-5.04Zm-6.52 8.23c.31-.3.46-.54.47-.56a.5.5 0 0 0-.86-.51s-.48.76-1.8 1.26c-1.11.42-3.43.42-4.38.4l-.76-6.97c.32-.17 1.22-.56 2.75-.51 2.34.03 4.47 1.76 5.27 2.42l.16.13c.17.14.41.14.59.03.18-.12.26-.34.21-.55 0-.02-.45-1.65.33-3.97.86-2.58.76-4.17.76-4.23a.494.494 0 0 0-.3-.42c-.82-.36-1.77-.97-1.89-1.29-.06-.16 0-.26.22-.54.17-.21.38-.48.33-.8.03-.22.52-.94.95-1.24.06-.04.36-.1.83 0 .52.12.98.37 1.13.63.4.67.28 1.92.19 2.84-.08.88.37 2.47.85 4.14.17.61.35 1.21.48 1.75.42 1.68.45 3.89-.85 4.58-.24.13-.34.43-.21.68.09.17.26.26.44.26.04 0 .07-.02.11-.03.01.35-.04.82-.3 1.36-.42.87-2.88 1.08-4.74 1.13l.02.01Z"/><path fill="#FFAA1D" d="M12.13 14.16c-.1-.1-2.43-2.43-5.59-1.76-.27.06-.44.32-.39.59.05.27.32.44.59.39 2.61-.55 4.65 1.46 4.67 1.48a.508.508 0 0 0 .71.01c.2-.19.2-.51 0-.71h.01Zm-9.08-1.89c-.27.02-.48.27-.45.54l.21 2.38c.02.26.24.46.5.46h.04c.27-.02.48-.27.45-.54l-.21-2.38c-.02-.27-.26-.46-.54-.45v-.01Z"/></g></g></g><defs><clipPath id="a"><path fill="#fff" d="M0 0h20v20H0z"/></clipPath><clipPath id="b"><path fill="#fff" d="M0 0h20v20H0z"/></clipPath><clipPath id="c"><path fill="#fff" d="M0 0h20v20H0z"/></clipPath></defs></svg>