<svg xmlns="http://www.w3.org/2000/svg" viewBox="0 0 20 20"><path d="M.05 3.86c.2-.75.69-1.15 1.4-1.15h17.18c.65 0 1.13.42 1.33 1.14-.06.05-.13.11-.2.16-3.18 2.43-6.37 4.85-9.55 7.29-.16.12-.26.12-.42 0C6.61 8.87 3.43 6.44.25 4.02c-.06-.05-.12-.1-.2-.16Z"/><path d="m.05 16.15 7.31-5.46c.39.29.78.59 1.16.89.38.29.77.58 1.15.88.23.18.43.18.66 0 .76-.59 1.53-1.17 2.32-1.77l7.29 5.43c-.06.58-.6 1.11-1.16 1.16H1.44c-.62 0-1.06-.31-1.32-.95-.02-.05-.03-.12-.06-.2ZM0 14.94V5.08l6.53 4.98L0 14.94Zm13.47-4.88L20 5.08v9.85l-6.53-4.87Z"/></svg>