<svg xmlns="http://www.w3.org/2000/svg" width="20" height="18"><path d="M16.654 0c1.707 0 3.135 1.193 3.325 2.758l.016.176.005.17v8.703c0 1.588-1.303 2.905-2.977 3.078l-.187.015-.182.005-7.133-.001-3.784 2.719-.084.051-.092.044-.103.037-.143.03-.128.01a1.02 1.02 0 0 1-.435-.104.96.96 0 0 1-.492-.615l-.024-.118-.007-.116-.002-1.944h-.875c-1.577 0-2.925-1.015-3.269-2.41l-.036-.17-.026-.173-.016-.174L0 11.8V3.098C0 1.506 1.3.192 2.982.019L3.17.005 3.352 0h13.302Zm-.083 2H3.436c-.707 0-1.293.43-1.413.973l-.017.11-.006.11v8.514c0 .57.494 1.068 1.163 1.172l.136.016.137.005h1.751c.44 0 .821.303.93.73l.02.11.008.112v1.029l2.517-1.81a.967.967 0 0 1 .305-.138l.117-.024.129-.009h7.358c.704 0 1.287-.43 1.406-.972l.017-.11.006-.11V3.192C18 2.546 17.368 2 16.57 2Zm-6.505 8.071.12.04.114.057a.962.962 0 0 1 .473.831c0 .117-.02.224-.074.377a.984.984 0 0 1-.1.171l-.063.08-.024.023a.928.928 0 0 1-.361.245 1.07 1.07 0 0 1-.333.055.932.932 0 0 1-.578-.19l-.066-.062a.864.864 0 0 1-.23-.322.931.931 0 0 1 .072-.894l.046-.068.068-.084.017-.018a.97.97 0 0 1 .92-.241Zm-.25-7.031c1.468 0 2.674 1.1 2.674 2.467 0 .96-.587 1.818-1.514 2.227a.41.41 0 0 0-.187.15l-.014.034-.007.053v.542a.951.951 0 0 1-1.877.22l-.02-.109-.008-.111V7.97c0-.73.39-1.397 1.038-1.798l.143-.082.147-.072c.25-.112.394-.31.394-.505 0-.309-.337-.588-.77-.588a.915.915 0 0 0-.47.123l-.087.064-.078.076a.965.965 0 0 1-1.338.096.94.94 0 0 1-.098-1.338 2.756 2.756 0 0 1 2.072-.907Z"/></svg>