<svg xmlns="http://www.w3.org/2000/svg" viewBox="0 0 20 20"><defs><linearGradient id="a" x1="17.74" x2="4.97" y1="2.69" y2="21.3" gradientUnits="userSpaceOnUse"><stop offset="0" stop-color="#e40543"/><stop offset=".44" stop-color="#753ea5"/><stop offset=".53" stop-color="#9e95a6"/><stop offset="1" stop-color="#cbcbcb"/></linearGradient></defs><path d="M18.73 19.14c0 .42-.34.76-.76.76H.76c-.21 0-.41-.09-.56-.24a.744.744 0 0 1-.2-.57c.33-4.91 4.44-8.76 9.36-8.76a.76.76 0 1 1 0 1.52c-3.84 0-7.1 2.8-7.74 6.52h16.35c.42 0 .76.34.76.76ZM4.94 4.6c0-2.49 2.02-4.5 4.5-4.5s4.5 2.02 4.5 4.5-2.02 4.5-4.5 4.5-4.5-2.02-4.5-4.5Zm1.53 0a2.97 2.97 0 1 0 5.94 0 2.97 2.97 0 0 0-5.94 0Zm13.3 12.98c-.15.15-.34.22-.54.22s-.39-.07-.54-.22l-2.34-2.34a3.3 3.3 0 0 1-1.95.64c-1.84 0-3.34-1.5-3.34-3.34s1.5-3.34 3.34-3.34 3.34 1.5 3.34 3.34c0 .56-.15 1.08-.39 1.54l2.42 2.42c.3.3.3.78 0 1.08Zm-3.56-5.04a1.82 1.82 0 1 0-3.64 0 1.82 1.82 0 0 0 3.64 0Z" style="fill:url(#a)"/></svg>