<svg xmlns="http://www.w3.org/2000/svg" viewBox="0 0 20 20"><path d="M19.22 4.99c-1.9-1.03-3.33-2.45-4.36-4.35a1.144 1.144 0 0 0-2 0c-1.04 1.92-2.5 3.34-4.45 4.35-.37.19-.61.57-.61.99 0 .42.22.81.59 1.02.9.5 1.85 1.05 2.62 1.82.77.76 1.31 1.68 1.84 2.64.2.36.58.59 1 .59h.02c.42 0 .8-.24.99-.62.99-1.94 2.42-3.39 4.36-4.44a1.134 1.134 0 0 0 0-2Zm-.47 1.12c-2.12 1.15-3.68 2.75-4.77 4.87-.03.06-.08.07-.12.07-.03 0-.09 0-.13-.08-.55-.98-1.15-2.01-2.01-2.86-.87-.86-1.88-1.45-2.85-1.98A.147.147 0 0 1 8.79 6c0-.04.01-.09.07-.12 2.13-1.1 3.73-2.66 4.87-4.76.03-.06.08-.07.12-.07s.09.01.12.07c1.12 2.04 2.72 3.64 4.76 4.75.06.03.07.08.07.12s-.01.09-.07.12ZM5.85 14.01c0 .32.17.62.45.78.52.28 1.06.6 1.49 1.03.43.42.74.95 1.04 1.5.15.28.45.45.77.45h.01c.32 0 .61-.19.76-.47.56-1.1 1.37-1.92 2.47-2.52a.88.88 0 0 0 .46-.77c0-.32-.18-.61-.46-.77-1.08-.58-1.88-1.39-2.47-2.46a.867.867 0 0 0-.76-.45c-.32 0-.61.17-.76.46-.59 1.09-1.42 1.89-2.52 2.46-.29.15-.47.44-.47.76Zm3.76-2.55a7.138 7.138 0 0 0 2.56 2.56 6.671 6.671 0 0 0-2.57 2.62c-.3-.53-.64-1.07-1.1-1.53-.47-.46-1-.79-1.52-1.09a6.81 6.81 0 0 0 2.62-2.57Z"/><path d="M16.45 10.79c-.28 0-.5.22-.5.5v7.66H1.15V4.15h6.7c.28 0 .5-.22.5-.5s-.22-.5-.5-.5H.65c-.28 0-.5.22-.5.5v15.8c0 .28.22.5.5.5h15.8c.28 0 .5-.22.5-.5v-8.16c0-.28-.22-.5-.5-.5Z"/></svg>