<svg xmlns="http://www.w3.org/2000/svg" xml:space="preserve" viewBox="0 0 32 32"><path d="M20.5 10.7c0-2.5-2-4.5-4.5-4.5s-4.5 2-4.5 4.5 2 4.5 4.5 4.5 4.5-2 4.5-4.5zm-7.8 0c0-1.8 1.5-3.3 3.3-3.3s3.3 1.5 3.3 3.3S17.8 14 16 14c-1.8 0-3.3-1.5-3.3-3.3zm14.8 10.8h-6.9c-.1-.5-.6-.9-1.2-.9h-.3v-2.9c2.7-1.2 4.6-3.9 4.6-7 0-4.2-3.4-7.7-7.6-7.7s-7.7 3.4-7.7 7.7c0 3.1 1.9 5.8 4.6 7v2.9h-.3c-.6 0-1 .4-1.2.9H4.4c-1.3 0-2.3.9-2.3 2.1V26c0 1.1 1 2.1 2.3 2.1h6.9c.1.5.6.9 1.2.9h6.9c.6 0 1-.4 1.2-.9h6.9c1.3 0 2.3-.9 2.3-2.1v-2.4c0-1.1-1-2.1-2.3-2.1zM9.9 10.7c0-3.4 2.8-6.2 6.1-6.2s6.1 2.8 6.1 6.2-2.8 6.2-6.1 6.2-6.1-2.8-6.1-6.2zm6.1 7.7c.5 0 1.1-.1 1.6-.2v2.1h-3.2v-2.1c.5.1 1 .2 1.6.2zM3.7 26v-2.4c0-.3.3-.6.8-.6h6.9v3.5h-7c-.4.1-.7-.2-.7-.5zm9.1-3.9h6.3v5.3h-6.3v-5.3zM28.3 26c0 .3-.4.6-.8.6h-6.9V23h6.9c.4 0 .8.3.8.6V26zM16 11.3c-.2 0-.4-.1-.5-.3-.2-.3-.1-.6.2-.8l1.3-.9c.3-.2.6-.1.8.2.2.3.1.6-.2.8l-1.4.9c0 .1-.1.1-.2.1z"/></svg>