<svg xmlns="http://www.w3.org/2000/svg" id="Layer_1" viewBox="0 0 20 20"><defs><style>.cls-2{fill:#1a3464}</style></defs><path d="M10.67 8.13 9.63 5.84c-.17-.36-.47-.84-.88-1.41-.36-.49-.8-1.02-1.23-1.49-.25-.27-.62-.64-.96-.89L4.57.58a.484.484 0 0 0-.62.03L.17 3.89c-.17.15-.22.39-.12.59L1.1 6.77c.13.29.35.65.66 1.11.33.47.75 1 1.2 1.51.47.52.87.91 1.15 1.13.02.02.04.04.06.05l1.99 1.47c.09.07.19.1.3.1.12 0 .23-.04.33-.12l3.77-3.28c.17-.15.22-.38.13-.58ZM1.11 4.4 4.3 1.62l1.67 1.23c.22.16.51.43.82.76.08.09.16.19.25.28L2.65 7.41l-.07-.1c-.27-.4-.46-.72-.57-.96l-.9-1.95Zm5.31 6.59L4.78 9.78l-.03-.02c-.27-.2-.63-.56-1.05-1.03-.15-.17-.29-.35-.44-.52l4.41-3.53c.09.12.19.23.27.35.37.52.64.95.78 1.24l.89 1.95L6.42 11Z" style="fill:#ffaa1d"/><path d="m19.91 10.04-2.58-3.69a.507.507 0 0 0-.41-.21h-4.55c-.28 0-.5.22-.5.5v6.87H4.7v-.77c0-.28-.22-.5-.5-.5s-.5.22-.5.5v1c-.63.11-1.21.44-1.63.94-.09.1-.16.21-.24.33-.3.47-.46 1.01-.46 1.58 0 .38.07.75.21 1.1.43 1.11 1.46 1.82 2.62 1.82s2.19-.71 2.62-1.82c.07-.18.12-.36.16-.54h5.43c.04.18.09.37.16.54.43 1.1 1.46 1.82 2.62 1.82s2.18-.71 2.62-1.81c.08-.19.13-.39.16-.59h1.55c.28 0 .5-.22.5-.5v-6.29c0-.1-.03-.2-.09-.29Zm-3.25-2.91 2.05 2.93h-5.84V7.13h3.79Zm-4.79 9.03H6.98c-.06-.41-.2-.8-.42-1.13-.12-.19-.27-.36-.42-.52h5.73v1.65Zm-5.99 1.18c-.28.72-.94 1.18-1.69 1.18s-1.41-.46-1.69-1.19c-.09-.23-.14-.48-.14-.73 0-.38.1-.74.3-1.04.05-.08.1-.16.17-.23.34-.41.84-.64 1.36-.64.16 0 .3.02.45.07.43.11.82.4 1.07.81.2.3.3.66.3 1.04 0 .25-.05.5-.14.74Zm9.29 1.18c-.74 0-1.4-.46-1.69-1.18-.09-.24-.14-.48-.14-.74 0-.38.1-.74.31-1.05.33-.54.9-.86 1.52-.86s1.19.32 1.52.87c.2.31.3.67.3 1.04 0 .25-.05.5-.14.74-.28.72-.94 1.18-1.69 1.18Zm2.78-2.41c-.06-.39-.2-.76-.41-1.09-.52-.83-1.4-1.33-2.37-1.33s-1.78.47-2.3 1.24v-3.87H19v5.05h-1.05Z" class="cls-2"/><path d="M15.22 15.9c-.38 0-.69.31-.69.7s.31.7.69.7.69-.31.69-.7-.31-.7-.69-.7Zm-10.99 0c-.38 0-.69.31-.69.7s.31.7.69.7.69-.31.69-.7-.31-.7-.69-.7Z" class="cls-2"/></svg>