<svg xmlns="http://www.w3.org/2000/svg" width="20" height="20" fill="none"><g clip-path="url(#clip0_929_22301)"><path fill="#FFAA1D" d="M14.58 18.91h-1.79v-3.09l1.79.24v2.85Zm0-6.81-1.79-.44v1.81l1.79.24V12.1Z"/><path fill="#1A3464" d="M19.5 18.41h-.98v-6.69c0-.23-.15-.43-.37-.48L8.1 8.61a.484.484 0 0 0-.17 0h-.09l-6.1 1.68c-.22.06-.37.26-.37.48l-.02 7.64H.5c-.28 0-.5.22-.5.5s.22.5.5.5h19c.28 0 .5-.22.5-.5s-.22-.5-.5-.5ZM2.37 11.15l5.08-1.4v3.65l-5.09.77v-3.02h.01Zm-.01 7.19v-3.16l5.11-.77v3.92H2.36v.01Zm15.17.02H8.47v-3.95l9.05 1.29v2.65l.01.01Zm0-3.66-9.05-1.29V9.75l9.05 2.37v2.58Z"/></g></svg>