<svg xmlns="http://www.w3.org/2000/svg" width="20" height="20" fill="none"><g clip-path="url(#clip0_929_22316)"><path fill="#FFAA1D" d="M14.58 18.85h-1.79V16.3l1.79.13v2.42Zm0-6.49-1.79-.31v1.43l1.79.24v-1.36Zm0-2.48V8.52l-1.79-.49.02 1.48 1.77.37Z"/><path fill="#1A3464" d="M19.5 18.27h-.98l.03-9.98c0-.22-.14-.42-.35-.48L8.12 4.72h-.27L1.72 6.38c-.22.06-.37.26-.37.48v11.41H.5c-.28 0-.5.22-.5.5s.22.5.5.5h1.29s.04.01.07.01h6.11l10.05.02c.05 0 .1-.01.15-.03h1.33c.28 0 .5-.22.5-.5s-.22-.5-.5-.5Zm-12.03 0H2.35v-3.05l5.12-.46v3.51Zm0-4.51-5.12.46v-3.06l5.12-.75v3.35Zm0-4.36-5.12.75v-2.9l5.12-1.39V9.4Zm10.05 8.88H8.47v-3.5l9.06.96v2.54h-.01Zm0-3.54-9.06-.96v-3.34l9.07 1.7v2.6h-.01Zm0-3.61-9.07-1.7V5.88l9.08 2.79v2.45l-.01.01Z"/></g></svg>