<svg xmlns="http://www.w3.org/2000/svg" width="20" height="20" fill="none"><path fill="#FFAA1D" d="M14.58 19.27h-1.79v-2.55l1.79.13v2.42Zm0-5.91-1.79-.31v1.43l1.79.24v-1.36Zm0-3.42-1.79-.49v1.43l1.79.42V9.94Zm0-3.42-1.79-.67v1.42l1.79.61V6.52Z"/><path fill="#1A3464" d="M19.5 18.69h-.98V6.86c0-.2-.12-.39-.31-.46L8.16 2.31H8.1c-.04-.01-.08-.02-.12-.02-.04 0-.07 0-.11.01h-.06L1.69 4.44c-.2.07-.33.26-.33.47v13.78H.5c-.28 0-.5.23-.5.5s.22.5.5.5h1.28s.05.01.07.01h6.12l10.05.02c.05 0 .11-.01.16-.03h1.32c.28 0 .5-.22.5-.5s-.22-.5-.5-.5Zm-12.03 0H2.35v-2.7l5.12-.46v3.16Zm0-4.17-5.12.46v-2.53l5.12-.9v2.97Zm0-3.98-5.12.9V8.92l5.12-1.33v2.95Zm0-3.99L2.35 7.88V5.26l5.12-1.79v3.08Zm10.05 12.14H8.47v-3.15l9.05.96v2.2-.01Zm0-3.2-9.05-.96v-2.96l9.05 1.85v2.07Zm0-3.08-9.05-1.85V7.62l9.05 2.75v2.04Zm0-3.09L8.47 6.57V3.52l9.05 3.68v2.12Z"/></svg>