<svg xmlns="http://www.w3.org/2000/svg" viewBox="0 0 20 20"><defs><linearGradient id="a" x1="17.25" x2="4.26" y1="2.73" y2="22.96" gradientUnits="userSpaceOnUse"><stop offset="0" stop-color="#e40543"/><stop offset=".44" stop-color="#753ea5"/><stop offset=".53" stop-color="#9e95a6"/><stop offset="1" stop-color="#cbcbcb"/></linearGradient></defs><path d="m18.42 13.66-3.28-2.79a.76.76 0 0 0-1 0l-3.28 2.79c-.17.15-.27.36-.27.59v4.97c0 .43.35.77.77.77h2.23c.43 0 .77-.35.77-.77v-1.89h.55v1.89c0 .43.35.77.77.77h2.23c.43 0 .77-.35.77-.77v-4.97c0-.23-.1-.44-.27-.59Zm-1.28 4.79h-.68v-1.89a.77.77 0 0 0-.77-.77h-2.1a.77.77 0 0 0-.77.77v1.89h-.68v-3.84l2.5-2.13 2.5 2.13v3.84Zm-8.11-5.76c.53 0 1.05.07 1.55.2.42.11.84-.14.94-.55.05-.2.02-.4-.07-.57 1.54-.85 2.59-2.5 2.59-4.38 0-.21-.03-.42-.05-.63h.19c.43 0 .77-.35.77-.77s-.35-.77-.77-.77h-.29c0-1.15-.97-3.03-3-3.81V.77c0-.42-.35-.77-.77-.77H7.96c-.43 0-.78.35-.78.77v.68c-2.27.91-2.96 2.67-2.99 3.76h-.3c-.43 0-.77.35-.77.77s.35.77.77.77h.19c-.03.21-.05.42-.05.63 0 1.78.94 3.35 2.35 4.23a7.737 7.737 0 0 0-5.07 6.89c-.01.21.07.42.21.57.15.15.35.24.56.24h7.31c.43 0 .77-.35.77-.77s-.35-.77-.77-.77H2.95a6.184 6.184 0 0 1 6.09-5.08Zm-1.8-9.57a.767.767 0 0 0 1.49-.26V1.55h.62v1.31c0 .43.35.77.77.77.35 0 .63-.23.73-.55 1.1.65 1.5 1.74 1.5 2.09v.04H5.73c0-.1.05-1.3 1.5-2.1Zm-1.6 3.65h6.8a3.461 3.461 0 1 1-6.86.63c0-.21.02-.42.06-.63Z" style="fill:url(#a)"/></svg>