<svg xmlns="http://www.w3.org/2000/svg" width="20" height="20"><path d="m11.37.502 6.74 5.83h.01c.46.4.72.97.72 1.58v9.96c0 1.14-.92 2.08-2.06 2.09l-3.23.04h-.03c-.55 0-1.07-.21-1.46-.6-.4-.4-.62-.93-.62-1.49v-3.95c0-.05-.09-.09-.09-.09H8.68c-.05 0-.09.09-.09.09v3.9c0 1.15-.94 2.09-2.09 2.09H3.27c-1.15 0-2.1-.94-2.1-2.09v-9.94c0-.61.26-1.18.72-1.58L8.64.503c.78-.67 1.95-.67 2.73 0Zm5.37 17.46c.05 0 .09-.09.09-.09h.01v-9.96l-6.78-5.9c-.04-.03-.12 0-.12 0l-6.75 5.84-.02 10.01c0 .05.09.09.09.09h3.22c.05 0 .09-.09.09-.09v-3.9c0-1.15.94-2.09 2.09-2.09h2.67c1.15 0 2.09.94 2.09 2.09v3.95l.09.09 3.23-.04Z"/></svg>