<svg xmlns="http://www.w3.org/2000/svg" width="20" height="20"><path d="M18.8 11.27a8.868 8.868 0 0 0-5.4-7.39v-.11c0-.56-.36-1.06-.89-1.25-.02 0-.12-.04-.14-.04-1.56-.43-3.2-.43-4.76 0-.02 0-.03 0-.05.02-.03 0-.05.01-.08.02-.54.18-.89.68-.89 1.25v.11a8.868 8.868 0 0 0-5.4 7.39C.53 11.33 0 11.9 0 12.59v3.93c0 .7.55 1.27 1.24 1.32 2.9.37 5.82.55 8.75.55 2.93 0 5.86-.18 8.78-.55.69-.04 1.24-.62 1.24-1.32v-3.93c0-.69-.53-1.25-1.2-1.32h-.01ZM6.59 6.13v1.34c0 .55.45 1 1 1s1-.45 1-1V4.3c.92-.19 1.89-.19 2.81 0v.27s.02.09.02.14v2.76c0 .55.45 1 1 1s1-.45 1-1V6.14a6.829 6.829 0 0 1 3.36 5.27c-4.36.64-8.92.63-13.57-.02a6.808 6.808 0 0 1 3.38-5.26ZM18 15.92c-5.33.63-10.71.63-16 0v-2.65h.11c2.72.42 5.42.63 8.06.63 2.64 0 5.22-.21 7.74-.63H18v2.65Z"/></svg>