<svg xmlns="http://www.w3.org/2000/svg" viewBox="0 0 20 20"><path d="M10.01 0C4.5 0 0 4.49 0 10c0 .31.02.62.05.93.01.13.03.25.05.37.02.17.05.34.08.5.03.17.07.33.11.5.02.1.05.2.08.3.06.21.12.41.18.61.35 1.02.85 1.95 1.48 2.79.65.87 1.43 1.62 2.32 2.24.39.26.8.5 1.22.71l.12.06c.2.09.39.18.6.27.01 0 .03.01.04.02.34.14.69.25 1.05.34.15.04.29.08.44.11.13.03.26.05.39.08.18.03.37.06.55.08.11.01.22.03.33.04.3.03.6.05.9.05C15.5 20 20 15.5 20 9.99 19.99 4.49 15.51 0 10.01 0Zm.43 3.4c.95 0 1.72.76 1.73 1.73 0 .97-.77 1.77-1.72 1.77s-1.73-.79-1.73-1.76c0-.94.78-1.72 1.73-1.73Zm2.43 11.82c-.01.09-.08.18-.15.25-.6.63-1.3 1.05-2.19 1.08-.45.02-.9.01-1.34-.04-.95-.12-1.65-1.01-1.52-1.95.22-1.52.49-3.04.73-4.56.04-.25.09-.5.1-.75.01-.37-.13-.53-.5-.6-.19-.04-.38-.07-.57-.11-.24-.05-.4-.18-.38-.44.02-.27.23-.38.47-.38.62-.01 1.25 0 1.87 0 .58-.01 1.15-.02 1.73-.01.47 0 .7.22.65.69-.1.84-.24 1.67-.38 2.51-.18 1.1-.41 2.2-.55 3.31-.12.92.25 1.17 1.11.82.18-.07.34-.19.53-.25.12-.03.31-.04.37.03.07.09.06.26.04.39Z"/></svg>