<svg xmlns="http://www.w3.org/2000/svg" viewBox="0 0 20 20"><path d="M16.54 4.66c0 .66-.54 1.2-1.2 1.2s-1.2-.54-1.2-1.2.54-1.2 1.2-1.2 1.2.54 1.2 1.2ZM20.01 10c0 2.44-.01 2.77-.05 3.76-.04.98-.19 1.75-.49 2.5-.29.76-.7 1.37-1.26 1.94-.57.57-1.19.97-1.94 1.26-.75.29-1.52.44-2.51.49-.96.04-1.28.06-3.76.06s-2.77-.01-3.76-.06c-.98-.04-1.75-.19-2.5-.48s-1.37-.7-1.94-1.26c-.57-.57-.97-1.18-1.26-1.94-.29-.75-.44-1.52-.49-2.5C0 12.77 0 12.45 0 10s0-2.77.05-3.76c.04-.98.2-1.75.49-2.5S1.23 2.37 1.8 1.8C2.37 1.23 2.99.83 3.74.54c.74-.3 1.52-.45 2.5-.49C7.21 0 7.53 0 10 0s2.77.01 3.76.06c.98.04 1.75.19 2.5.49.75.29 1.37.69 1.94 1.26.57.57.97 1.18 1.26 1.94.29.75.44 1.52.49 2.5.04.99.05 1.32.05 3.76Zm-2 0c0-2.4 0-2.72-.05-3.67-.03-.75-.14-1.33-.35-1.87-.2-.5-.44-.88-.81-1.25-.38-.38-.75-.62-1.25-.81-.54-.21-1.12-.32-1.87-.35-.95-.04-1.27-.05-3.67-.05s-2.72 0-3.67.05c-.76.03-1.33.14-1.87.35-.5.19-.87.44-1.25.81s-.62.75-.81 1.25c-.21.54-.32 1.12-.35 1.87-.04.95-.05 1.26-.05 3.67s0 2.72.05 3.67c.03.76.14 1.33.35 1.87.19.5.44.88.81 1.25s.75.62 1.25.82c.54.21 1.11.32 1.87.35.95.04 1.27.05 3.67.05s2.72 0 3.67-.05c.76-.03 1.33-.14 1.87-.35.5-.19.87-.44 1.25-.81.37-.37.62-.75.81-1.25.21-.54.32-1.12.35-1.87.04-.95.05-1.27.05-3.67ZM10 6.25c-2.07 0-3.75 1.68-3.75 3.75s1.68 3.75 3.75 3.75 3.75-1.68 3.75-3.75S12.07 6.25 10 6.25Z"/></svg>