<svg xmlns="http://www.w3.org/2000/svg" viewBox="0 0 20 20"><path d="M19.07 10.27h-.38c-.12-3.54-2.36-6.66-5.67-7.88V1.9c0-.36-.23-.67-.56-.79 0 0-.1-.03-.11-.03a8.65 8.65 0 0 0-4.68 0c-.01 0-.03 0-.04.01-.02 0-.04.01-.07.02A.82.82 0 0 0 7 1.9v.49a8.69 8.69 0 0 0-5.68 7.88H.94c-.46 0-.83.37-.83.83v4.11c0 .46.37.83.76.83 2.32.29 4.67.48 6.99.55h.02c.27 0 .49-.21.5-.48 0-.28-.21-.51-.48-.51-2.24-.07-4.5-.24-6.79-.52v-3.8h.67c2.1.32 4.19.53 6.22.61h.02c.27 0 .49-.21.5-.48.01-.28-.2-.51-.48-.52-1.86-.08-3.78-.27-5.71-.56a7.694 7.694 0 0 1 4.66-6.84v2.28c0 .28.22.5.5.5s.5-.22.5-.5V2.03c1.28-.35 2.69-.35 4.02 0v.72s.02.05.02.07v2.95c0 .28.22.5.5.5s.5-.22.5-.5V3.5a7.685 7.685 0 0 1 4.65 7.06v.21c0 .28.22.5.5.5h.71v3.8c-.17.02-.28.03-.39.03-.13 0-.27.02-.49.04-.27.03-.47.28-.44.55.03.27.26.47.55.44.2-.02.32-.03.44-.04.16 0 .3-.02.5-.05.46 0 .83-.37.83-.83V11.1c0-.46-.37-.83-.83-.83ZM19 15.05Z"/><path d="M12.92 8.56c-2.05 0-4.25.58-4.25 1.87 0 .02.01.04.01.05 0 .02-.01.04-.01.06v1.48s.02.06.02.09-.02.06-.02.1v1.48s.02.06.02.09-.02.06-.02.1v1.48s.02.06.02.09-.02.06-.02.1v1.48c0 1.28 2.2 1.87 4.25 1.87s4.25-.58 4.25-1.87v-1.48s-.01-.07-.02-.1c0-.03.02-.06.02-.09v-1.48s-.01-.07-.02-.1c0-.03.02-.06.02-.09v-1.48s-.01-.07-.02-.1c0-.03.02-.06.02-.09v-1.48s0-.04-.01-.06c0-.02.01-.04.01-.05 0-1.28-2.2-1.87-4.25-1.87Zm3.25 6.81c0 .22-1.12.87-3.25.87s-3.25-.65-3.25-.87v-.43c.83.42 2.06.62 3.25.62s2.42-.2 3.25-.62v.43Zm0-1.67c0 .22-1.12.87-3.25.87s-3.25-.65-3.25-.87v-.43c.83.42 2.06.62 3.25.62s2.42-.2 3.25-.62v.43Zm0-1.67c0 .22-1.12.87-3.25.87s-3.25-.65-3.25-.87v-.35c.83.42 2.06.62 3.25.62s2.42-.2 3.25-.62v.35Zm-3.25-2.47c2.13 0 3.25.65 3.25.87s-1.12.87-3.25.87-3.25-.65-3.25-.87 1.12-.87 3.25-.87Zm0 8.36c-2.13 0-3.25-.65-3.25-.87v-.43c.83.42 2.06.62 3.25.62s2.42-.2 3.25-.62v.43c0 .22-1.12.87-3.25.87Z"/></svg>