<svg xmlns="http://www.w3.org/2000/svg" viewBox="0 0 20 20"><path d="M15.07 14.85v1.12c0 .55-.45 1-1 1s-1-.45-1-1v-1.12c0-.55.45-1 1-1s1 .45 1 1Zm-.3-3.25c-.36-.36-1.04-.37-1.41 0-.09.1-.16.21-.22.33-.05.12-.07.25-.07.38a.99.99 0 0 0 1 1c.27 0 .52-.1.7-.29a1 1 0 0 0 .3-.71c0-.13-.03-.26-.08-.38s-.12-.23-.22-.33ZM20 14.07a5.936 5.936 0 0 1-6.53 5.9h-.04a5.927 5.927 0 0 1-5.29-5.9c0-3.27 2.66-5.93 5.93-5.93.33 0 .58.02.83.07 2.88.35 5.1 2.88 5.1 5.86Zm-2 0c0-1.98-1.47-3.65-3.42-3.89-.04 0-.07 0-.11-.01-.13-.02-.26-.03-.4-.03a3.93 3.93 0 0 0-3.86 4.66c.02.08.05.15.07.23.04.15.07.31.13.46.04.09.09.17.13.26.06.13.11.26.19.37.05.09.12.16.18.24.08.11.15.22.24.32.07.08.15.14.23.21.09.09.18.18.28.26.08.06.17.11.26.17.11.07.22.15.33.21.09.05.19.08.28.12.13.05.25.12.38.16.09.03.2.04.29.06.14.03.29.07.44.09h.03c.13.02.26.03.4.03A3.93 3.93 0 0 0 18 14.06ZM7.05 18H2.44c-.24 0-.44-.2-.44-.45V2.44c0-.25.19-.44.44-.44h10.81c.25 0 .45.19.45.44v3.19c0 .55.45 1 1 1s1-.45 1-1V2.44C15.7 1.1 14.61 0 13.25 0H2.44A2.45 2.45 0 0 0 0 2.44v15.11C0 18.9 1.09 20 2.44 20h4.62c.55 0 1-.45 1-1s-.45-1-1-1Zm5.39-12.43c0-.55-.45-1-1-1H4.26c-.55 0-1 .45-1 1s.45 1 1 1h7.19c.55 0 1-.45 1-1ZM4.26 7.81c-.55 0-1 .45-1 1s.45 1 1 1H6.7c.55 0 1-.45 1-1s-.45-1-1-1H4.26Z"/></svg>