<svg xmlns="http://www.w3.org/2000/svg" viewBox="0 0 20 20"><path d="M4.94 6.77v12.91c0 .18-.15.32-.32.32H.57c-.18 0-.32-.14-.32-.32V6.77c0-.18.15-.32.32-.32h4.04c.18 0 .32.14.32.32ZM2.63 0C1.18 0 0 1.19 0 2.64s1.18 2.65 2.63 2.65S5.26 4.1 5.26 2.64A2.629 2.629 0 0 0 2.63 0Zm12.23 6.12c-1.61 0-2.81.69-3.53 1.48v-.84c0-.18-.14-.32-.32-.32H7.16c-.18 0-.32.14-.32.32v12.92c0 .18.14.32.32.32h4.01c.18 0 .32-.14.32-.32v-6.39c0-2.15.58-2.99 2.09-2.99 1.63 0 1.76 1.35 1.76 3.1v6.28c0 .18.14.32.32.32h4.01c.18 0 .32-.14.32-.32v-7.09c0-3.2-.61-6.48-5.14-6.48Z"/></svg>