<svg xmlns="http://www.w3.org/2000/svg" xml:space="preserve" style="enable-background:new 0 0 122.88 66.91"><path d="M10 4.05c-2.33 0-4.23 1.9-4.23 4.23s1.9 4.23 4.23 4.23 4.23-1.9 4.23-4.23-1.9-4.23-4.23-4.23Zm0 6.46c-1.23 0-2.23-1-2.23-2.23s1-2.23 2.23-2.23 2.23 1 2.23 2.23-1 2.23-2.23 2.23Zm5.85-8.08C14.29.87 12.21.01 10 .01S5.71.87 4.15 2.43 1.73 6.07 1.73 8.28s.86 4.29 2.42 5.85l5.14 5.14c.2.2.45.29.71.29s.51-.1.71-.29l5.14-5.14c1.56-1.56 2.42-3.64 2.42-5.85s-.86-4.29-2.42-5.85Zm-1.41 10.29L10 17.16l-4.44-4.44c-1.18-1.19-1.84-2.76-1.84-4.44s.65-3.25 1.84-4.44C6.75 2.66 8.32 2 10 2s3.25.65 4.44 1.84c1.18 1.19 1.84 2.76 1.84 4.44s-.65 3.25-1.84 4.44Z"/></svg>