<svg xmlns="http://www.w3.org/2000/svg" viewBox="0 0 20 20"><path d="M17.77 19.69h-2.58c-.18 0-.34-.09-.43-.25l-1.73-2.98a.497.497 0 0 1 0-.5c.09-.16.25-.25.43-.25h6.05c.18 0 .34.1.43.25.09.16.09.35 0 .5l-1.73 2.98c-.09.15-.25.25-.43.25Zm-2.29-1h2.01l1.15-1.98h-4.31l1.15 1.98Z" style="fill:#ffaa1d"/><path d="M14.42 5.84h-.95c-1.33 0-2.42 1.09-2.42 2.42v6.5c0 .57-.34 1.09-.87 1.31-.25.11-.37.4-.27.66.08.19.27.31.46.31.06 0 .13-.01.19-.04a2.41 2.41 0 0 0 1.48-2.23v-6.5c0-.78.64-1.42 1.42-1.42h.95c.78 0 1.42.64 1.42 1.42v5.5c0 .28.22.5.5.5s.5-.22.5-.5v-5.5c0-1.33-1.09-2.42-2.42-2.42ZM9.26 18.99h-.25s.03-.08.03-.12V11.5s.02-.06.02-.1V.51c0-.28-.22-.5-.5-.5H1.23a.49.49 0 0 0-.5.5v18.35s.01.08.03.12H.51c-.29.01-.51.24-.51.51s.22.5.5.5h1.54c.28 0 .5-.22.5-.5s-.22-.5-.5-.5H1.7s.03-.08.03-.12v-6.25l2.54 2.57a2.426 2.426 0 0 0 2.38 1.99c.28 0 .5-.22.5-.5s-.22-.5-.5-.5c-.66 0-1.21-.45-1.37-1.06l2.77-2.55v6.31s.01.08.03.12h-.35c-.28 0-.5.22-.5.5s.22.5.5.5h1.54c.28 0 .5-.22.5-.5s-.22-.5-.5-.5Zm-4.53-4.75-3.01-3.05V1.01h6.33v2.47H5.76c-.28 0-.5.22-.5.5s.22.5.5.5h2.29v2.26H5.76c-.28 0-.5.22-.5.5s.22.5.5.5h2.29V10H5.76c-.28 0-.5.22-.5.5s.22.5.5.5h2.27v.2l-3.31 3.05Z" style="fill:#1a3464"/></svg>