<svg xmlns="http://www.w3.org/2000/svg" width="20" height="20"><path d="M7.61 11.5h.1l.1.03c.4.1.68.45.68.86v6.83l-.03.1c-.1.4-.45.68-.86.68H1.98l-.14-.02A2.132 2.132 0 0 1 0 17.88v-5.6l.03-.1c.1-.4.45-.68.86-.68h6.72Zm11.5 0c.41 0 .76.28.86.68l.02.1v5.6c0 1.07-.78 1.96-1.83 2.1h-.14l-.14.02h-5.49c-.41 0-.76-.28-.86-.68l-.02-.1v-6.83c0-.41.27-.76.68-.86l.1-.02h6.83-.01v-.01Zm-12.61 2H2v4.23l.02.06c.05.12.17.21.32.21H6.5v-4.5Zm11.5 0h-4.5V18h4.16c.15 0 .27-.09.32-.21l.02-.06V13.5ZM17.88 0h.14l.14.02C19.2.16 20 1.06 20 2.12v5.6l-.03.1c-.1.4-.45.68-.86.68h-6.83l-.1-.03c-.4-.1-.68-.45-.68-.86V.78l.03-.1c.1-.4.45-.68.86-.68h5.49ZM7.61 0c.41 0 .76.28.86.68l.02.1v6.84c0 .41-.27.76-.68.86l-.1.02H.89c-.41 0-.76-.28-.86-.68l-.02-.1v-5.6C0 1.05.79.16 1.84.02h.14L2.12 0h5.49Zm10.05 2H13.5v4.5H18V2.27l-.02-.06a.343.343 0 0 0-.32-.21ZM6.5 2H2.34c-.15 0-.27.09-.32.21L2 2.27V6.5h4.5V2Z"/></svg>