<svg xmlns="http://www.w3.org/2000/svg" width="20" height="20" fill="none"><path fill="#000" d="m17.32 11.92 1.92 1.83c.96.91 1 2.45.09 3.41l-1.71 1.81c-.47.49-1.21.75-2.2.78h-.15c-2.48 0-6.62-1.46-10.04-4.72C.74 10.75-1.07 4.63.66 2.81L2.35 1C2.8.53 3.4.27 4.04.25c.61-.01 1.25.22 1.72.67l1.92 1.83c1.07 1.02 1.22 2.32.36 3.23l-1.1 1.16c.64 1.28 1.5 2.45 2.57 3.44 1.06 1.04 2.27 1.85 3.61 2.42l1.06-1.17c.88-.93 2.11-.89 3.14.09Zm-1.15 5.67 1.71-1.8v.01c.15-.17.15-.43-.02-.59l-1.92-1.83c-.17-.16-.31-.21-.31-.21l-1.1 1.2c-.56.6-1.41.79-2.17.48-1.59-.68-3-1.63-4.22-2.82a13.79 13.79 0 0 1-2.99-4.05c-.36-.77-.21-1.63.35-2.22L6.6 4.6c.01-.02-.05-.19-.28-.41L4.4 2.36a.352.352 0 0 0-.29-.11c-.07 0-.19.02-.29.13l-1.71 1.8c-.56.74.47 5.56 4.5 9.41 4.02 3.83 8.86 4.6 9.56 4Z"/></svg>