<svg xmlns="http://www.w3.org/2000/svg" width="20" height="20" fill="none"><g clip-path="url(#clip0_929_22239)"><g fill="#1A3464"><path d="M9.89 13.28c2.36 0 4.28-1.92 4.28-4.29 0-2.21-3.5-6.35-3.9-6.82a.52.52 0 0 0-.76 0c-.4.46-3.9 4.61-3.9 6.82 0 2.36 1.92 4.29 4.28 4.29Zm0-10c1.18 1.44 3.28 4.32 3.28 5.71a3.29 3.29 0 0 1-3.28 3.29c-1.81 0-3.28-1.47-3.28-3.29 0-1.39 2.11-4.27 3.28-5.71Z"/><path d="M17.69 12.29c-.26-.1-.55.02-.65.28-.1.26.02.55.28.65 1.05.42 1.68.92 1.68 1.34 0 1.02-3.42 2.45-9 2.45s-9-1.44-9-2.46c0-.42.62-.91 1.65-1.33a.501.501 0 0 0-.37-.93C.39 13.06 0 13.94 0 14.55 0 16.81 5.03 18 10 18s10-1.18 10-3.45c0-.61-.4-1.51-2.31-2.27v.01Z"/></g><path fill="#FFAA1D" d="M14.9 12.65a.506.506 0 0 0-.63.33c-.08.26.06.54.33.63.67.21.88.4.92.38-.19.36-2.19 1.01-5.51 1.01s-5.33-.65-5.51-.92c.03-.06.25-.25.9-.46a.51.51 0 0 0 .33-.63.506.506 0 0 0-.63-.33c-.39.12-1.59.5-1.59 1.37 0 1.91 5.84 1.97 6.5 1.97.66 0 6.5-.06 6.5-1.97 0-.87-1.21-1.25-1.61-1.38Zm-4.36-1.03c.06 0 .12-.01.18-.03.96-.38 1.75-1.45 1.88-2.55a.503.503 0 1 0-1-.12c-.09.74-.64 1.5-1.25 1.74-.26.1-.38.39-.28.65.08.2.27.32.47.32v-.01Z"/></g></svg>