<svg id="play-circle" xmlns="http://www.w3.org/2000/svg" width="52.613" height="52.613" viewBox="0 0 52.613 52.613">
  <g id="Group_20" data-name="Group 20">
    <path id="Path_15" data-name="Path 15" d="M26.307,49.325A23.018,23.018,0,1,1,49.325,26.307,23.018,23.018,0,0,1,26.307,49.325Zm0,3.288A26.307,26.307,0,1,0,0,26.307,26.307,26.307,0,0,0,26.307,52.613Z" fill="#0a3c69"/>
    <path id="Path_16" data-name="Path 16" d="M72.891,60.177a1.644,1.644,0,0,1,1.71.125L86.11,68.523a1.644,1.644,0,0,1,0,2.677L74.6,79.42A1.644,1.644,0,0,1,72,78.082V61.64A1.644,1.644,0,0,1,72.891,60.177Z" transform="translate(-52.27 -43.554)" fill="#fff"/>
  </g>
</svg>
