<svg xmlns="http://www.w3.org/2000/svg" width="16" height="20" fill="none"><path fill="#000" d="M13.41 0H2.59A2.45 2.45 0 0 0 .15 2.44v15.11C.15 18.9 1.25 20 2.59 20h10.82c1.35 0 2.45-1.1 2.45-2.45V2.44A2.465 2.465 0 0 0 13.41 0Zm.45 17.55c0 .25-.2.45-.45.45H2.59a.44.44 0 0 1-.44-.45V2.44c0-.25.2-.44.44-.44h10.82c.25 0 .45.2.45.44v15.11ZM12.6 5.56c0 .55-.45 1-1 1H4.41c-.55 0-1-.45-1-1s.45-1 1-1h7.19c.55 0 1 .45 1 1Zm0 3.24c0 .55-.45 1-1 1H4.41c-.55 0-1-.45-1-1s.45-1 1-1h7.19c.55 0 1 .45 1 1Zm0 6.68c0 .55-.45 1-1 1h-1.49c-.55 0-1-.45-1-1s.45-1 1-1h1.49c.55 0 1 .45 1 1Z"/></svg>