<svg xmlns="http://www.w3.org/2000/svg" viewBox="0 0 14 14"><path d="M4.312 4.144V2.646C4.389 1.169 5.6 0 7.07 0h.231c1.456.077 2.618 1.302 2.618 2.793v1.484c-.077 1.477-1.288 2.66-2.758 2.66H6.93C5.474 6.86 4.312 5.635 4.312 4.144zM14 13.293a.708.708 0 0 1-.7.707.708.708 0 0 1-.7-.707c0-2.037-1.666-3.689-3.717-3.689H4.97c-1.974.084-3.563 1.708-3.563 3.689a.708.708 0 0 1-.7.707.714.714 0 0 1-.707-.707c0-2.814 2.296-5.11 5.117-5.11h3.934A5.112 5.112 0 0 1 14 13.293zM5.705 4.151V2.8a1.38 1.38 0 0 1 1.253-1.379h.196c.714 0 1.309.553 1.365 1.267v1.449a1.38 1.38 0 0 1-1.253 1.379H7.07a1.373 1.373 0 0 1-1.365-1.267v-.098z"/></svg>