<svg xmlns="http://www.w3.org/2000/svg" xml:space="preserve" viewBox="0 0 32 32"><path d="M11.4 20.6v1.5c0 1.1.9 2.1 2.1 2.1h5.2c1.1 0 2.1-.9 2.1-2.1v-1.5c0-1.1-.9-2.1-2.1-2.1h-5.2c-1.2 0-2.1 1-2.1 2.1zm1.5 0c0-.3.3-.6.6-.6h5.2c.3 0 .6.3.6.6v1.5c0 .3-.3.6-.6.6h-5.2c-.3 0-.6-.3-.6-.6v-1.5zm-6.6-4.3H4.4L16.5 4.9c.3-.3.3-.8 0-1.1s-.8-.3-1.1 0L2 16.5c-.2.2-.3.5-.2.8.1.3.4.5.7.5h3v9.8c0 .4.3.8.8.8s.7-.4.7-.8V17.1c0-.4-.3-.8-.7-.8z"/><path d="M30 16.5 17.9 5.1c-.3-.3-.8-.3-1.1 0-.3.3-.3.8 0 1.1l10.8 10.1h-1.5c-.2 0-.4.1-.5.2s-.2.3-.2.5v9.8H8.2c-.4 0-.8.3-.8.8s.3.8.8.8h17.9c.2 0 .4-.1.5-.2s.2-.3.2-.5v-9.8h2.6c.3 0 .6-.2.7-.5.2-.3.1-.7-.1-.9z"/></svg>