<svg xmlns="http://www.w3.org/2000/svg" viewBox="0 0 20 20"><path d="M19.92 19.23c-1.23-1.92-5.38-8.17-7.31-8.17-.41 0-.94.3-1.5.72l.94-7.05a.494.494 0 0 0-.12-.4.486.486 0 0 0-.38-.17h-.58C9.78 2.83 7.12 0 6.05 0 4.71 0 1.86 3.06.87 4.16H.64a.5.5 0 0 0-.5.57l.99 6.8-1.11 5.15a.508.508 0 0 0 .49.61h2.17c-.35.57-.74 1.22-1.18 1.95-.09.15-.1.35 0 .5s.26.25.44.25H19.5c.18 0 .35-.1.44-.26s.08-.36-.02-.51ZM6.04 1c.45.06 2.05 1.53 3.53 3.11H2.28C3.81 2.49 5.5 1 6.04 1ZM3.18 16.29H1.13l.66-3.05c.08.1.15.17.2.21.09.06.2.1.31.1.16 0 .31-.07.41-.2.16-.23.13-.52-.1-.68 0 0-.23-.26-.48-1.25l-.91-6.25h9.77l-1.02 7.64c-.62.62-1.19 1.26-1.54 1.69-1.96-1.66-2.3-1.61-2.48-1.59-.25.03-.56.07-2.66 3.42-.03 0-.07-.02-.1-.02ZM2.8 19c1.86-3.08 2.89-4.59 3.29-5.04.59.35 2.21 1.72 3.54 2.94.2.19.52.17.71-.03.19-.2.17-.52-.03-.71-.42-.38-.79-.72-1.13-1.01 1.28-1.53 2.91-3.08 3.43-3.08.88 0 3.67 3.47 5.96 6.94H2.81Z"/></svg>