<svg xmlns="http://www.w3.org/2000/svg" width="16" height="16"><path fill="#333" d="m15.728 14.424-3.335-3.058c-.02-.02-.05-.029-.07-.05a7.188 7.188 0 0 0 1.29-2.762 8.31 8.31 0 0 0 .15-1.136 7.126 7.126 0 0 0-1.75-5.083A6.82 6.82 0 0 0 7.258.01C7.137 0 7.007 0 6.887 0 3.23.003.21 2.927.01 6.66a7.131 7.131 0 0 0 1.878 5.231 6.817 6.817 0 0 0 5.01 2.197 6.764 6.764 0 0 0 4.193-1.473c.02.021.02.042.04.061l3.335 3.058c.18.184.41.266.64.266a.926.926 0 0 0 .64-.266.948.948 0 0 0-.018-1.31zm-8.83-2.177c-.09 0-.191 0-.29-.01-2.805-.158-4.955-2.607-4.805-5.473.16-2.869 2.558-5.065 5.365-4.911a5.032 5.032 0 0 1 3.515 1.716 5.258 5.258 0 0 1 1.29 3.757c-.014.282-.05.563-.11.839-.526 2.374-2.583 4.066-4.965 4.082z"/></svg>