<svg xmlns="http://www.w3.org/2000/svg" viewBox="0 0 20 20"><path d="m13.48 6.32-6.43 2.9c.11.52.12 1.03 0 1.55l6.47 2.87s.06-.07.08-.1c1.03-1.31 2.72-1.75 4.25-1.1 1.37.58 2.25 2.04 2.13 3.52a3.57 3.57 0 0 1-3.89 3.3c-2.04-.17-3.55-2.15-3.17-4.15.03-.14 0-.18-.13-.24-1.65-.73-3.29-1.46-4.94-2.19-.42-.19-.84-.37-1.26-.56-.09-.04-.14-.02-.2.05-.79.98-1.82 1.46-3.08 1.39C1.7 13.46.3 12.17.06 10.57-.21 8.8.83 7.13 2.54 6.59c1.38-.43 2.91.05 3.82 1.2.08.11.14.11.26.06l6.18-2.79c.1-.05.12-.09.1-.2-.27-1.7.7-3.35 2.31-3.93 2.1-.76 4.41.61 4.73 2.83.29 1.97-1.08 3.81-3.05 4.06-1.37.17-2.48-.33-3.34-1.41-.02-.03-.05-.06-.07-.1Zm2.95-4.16c-1.2 0-2.15.94-2.15 2.13s.94 2.14 2.11 2.14c1.22 0 2.16-.94 2.16-2.15 0-1.18-.95-2.13-2.13-2.13Zm2.13 13.55c0-1.2-.95-2.13-2.18-2.13-1.15 0-2.1.96-2.1 2.13 0 1.19.95 2.15 2.13 2.14 1.21 0 2.15-.94 2.15-2.15ZM1.44 10c0 1.17.94 2.13 2.11 2.14 1.21.01 2.16-.93 2.17-2.13 0-1.17-.93-2.14-2.08-2.15-1.24 0-2.19.91-2.2 2.14Z"/></svg>