<svg xmlns="http://www.w3.org/2000/svg" width="20" height="20"><path fill="#604504" d="M10 17.41a327.982 327.982 0 0 1-4.39 2.433c-1.035.563-2.323-.474-2.179-1.725.209-1.73.45-3.467.717-5.212A418.036 418.036 0 0 0 .444 9.209c-.89-.87-.36-2.396.872-2.614a701.94 701.94 0 0 1 5.081-.858A415.922 415.922 0 0 0 8.694.884c.547-1.179 2.064-1.179 2.611 0a419.11 419.11 0 0 0 2.297 4.853c1.69.278 3.384.567 5.081.858 1.234.218 1.763 1.744.873 2.614a418.036 418.036 0 0 0-3.704 3.697c.267 1.745.508 3.483.717 5.212.144 1.25-1.144 2.288-2.179 1.725A323.44 323.44 0 0 1 10 17.41Z"/></svg>