<svg xmlns="http://www.w3.org/2000/svg" width="20" height="20" fill="none"><g clip-path="url(#clip0_990_14012)"><g fill="#000" clip-path="url(#clip1_990_14012)"><path d="M11.25 20H.62c-.28 0-.5-.23-.5-.5v-1.96c0-.28.23-.5.5-.5h2.6c.51 0 1.23-.37 1.23-1.2v-3.05c0-.94-.82-1.34-1.15-1.34H.62c-.28 0-.5-.23-.5-.5V8.96c0-.28.23-.5.5-.5h10.63c.28 0 .5.23.5.5v2.01c0 .28-.23.5-.5.5H8.82c-1.25 0-1.34 1-1.34 1.21v3.1c0 .4.27 1.23 1.09 1.23h2.69c.28 0 .5.23.5.5v1.99c0 .28-.23.5-.5.5h-.01ZM1.12 18.99h9.63v-.98H8.57c-1.45 0-2.1-1.31-2.1-2.24v-3.1c0-.61.42-2.21 2.35-2.21h1.93V9.45H1.12v.98h2.19c.88 0 2.16.84 2.16 2.35v3.05c0 1.37-1.16 2.21-2.24 2.21H1.12v.95Zm18.19-9.36h-2.69c-1.45 0-2.1-1.31-2.1-2.24 0-.28.23-.5.5-.5s.5.23.5.5c0 .4.27 1.23 1.09 1.23h2.69c.28 0 .5.23.5.5s-.23.5-.5.5l.01.01Z"/><path d="M.63 9.42c-.14 0-.27-.05-.37-.16-.19-.2-.18-.52.03-.71L9.33.13c.09-.09.22-.14.34-.14h9.71c.2 0 .39.12.46.31.08.19.04.4-.1.55l-8.18 8.41c-.19.2-.51.2-.71.01-.2-.19-.2-.51-.01-.71L18.19 1H9.87L.97 9.28c-.1.09-.22.14-.34.14Z"/><path d="M11.3 11.42a.504.504 0 0 1-.37-.85l7.93-8.33V.67c0-.28.23-.5.5-.5s.5.23.5.5v1.77c0 .13-.05.25-.14.35l-8.05 8.47c-.1.1-.23.16-.37.16Zm-.02 8.51a.495.495 0 0 1-.35-.85l7.94-8.09v-.58l-7.25 7.3c-.2.2-.52.2-.71 0-.2-.2-.2-.52 0-.71l8.11-8.17a.49.49 0 0 1 .55-.11c.19.08.31.26.31.47v2.01a.5.5 0 0 1-.14.35l-8.09 8.23c-.1.1-.23.15-.36.15h-.01ZM.72 18.02c-.13 0-.26-.05-.36-.15-.2-.2-.2-.52 0-.71l4.17-4.18c.2-.2.52-.2.71 0 .2.2.2.52 0 .71l-4.17 4.18c-.1.1-.23.15-.36.15h.01Z"/></g></g></svg>