<svg xmlns="http://www.w3.org/2000/svg" width="20" height="20"><path d="m12.275 0 .12.007c.16.017.309.069.446.154l.102.071.104.093 4.62 4.62.078.087c.102.125.172.265.21.423l.023.121.009.143v12.647l-.005.124a1.618 1.618 0 0 1-1.34 1.484l-.15.02-.144.006H3.634l-.124-.005a1.618 1.618 0 0 1-1.484-1.34l-.02-.149L2 18.361V1.634l.005-.124A1.618 1.618 0 0 1 3.345.026l.149-.02L3.639 0h8.636Zm-2.25 1.94H3.942v16.118h12.104V7.961H12.33l-.14-.005c-1.08-.07-1.984-.92-2.14-1.984l-.018-.162-.006-.157V1.94Zm3.179 12.05a.95.95 0 0 1 .11 1.895l-.11.006H6.783a.95.95 0 0 1-.11-1.894l.11-.007h6.42Zm0-3.554a.95.95 0 0 1 .11 1.895l-.11.006H6.783a.95.95 0 0 1-.11-1.894l.11-.007h6.42Zm-1.237-8.475v3.682l.004.07a.34.34 0 0 0 .214.282l.072.019.077.006h3.69l-4.057-4.06Z"/></svg>