<svg xmlns="http://www.w3.org/2000/svg" viewBox="0 0 20 20"><path d="M19.5 19h-5.04V9.31c0-.19-.11-.37-.29-.45L10.39 7.1a.511.511 0 0 0-.48.03c-.15.09-.23.25-.23.42V8.6L5.73 7.14a.502.502 0 0 0-.46.06c-.13.09-.21.25-.21.41v1L1.42 7.22a.53.53 0 0 0-.46 0 .49.49 0 0 0-.23.26c-.03.08-.04.16-.03.23v11.28H.52c-.3.01-.52.23-.52.51s.22.5.5.5h19c.28 0 .5-.22.5-.5s-.22-.5-.5-.5ZM1.68 8.39l3.7 1.41c.15.06.33.04.46-.06a.49.49 0 0 0 .22-.41v-1L10 9.79a.499.499 0 0 0 .67-.47v-.98l2.79 1.3v9.35h-2.25v-3.41c0-.28-.22-.5-.5-.5H7.42c-.28 0-.5.22-.5.5v3.41H1.68V8.39Zm6.23 10.49v-2.81h2.29v2.81H7.91Z" style="fill:#1a3464"/><path d="M9.91 7.12c.15-.09.33-.1.48-.03l.5.23V4.7c0-2.05 1.66-3.71 3.71-3.71.98 0 1.92.39 2.63 1.09.7.7 1.09 1.63 1.09 2.62v.21h-4.03c-.28 0-.5.22-.5.5s.22.5.5.5h4.03v13.07h1V4.71c0-1.26-.49-2.44-1.38-3.33A4.75 4.75 0 0 0 14.6 0C12 0 9.89 2.11 9.89 4.71v2.43s0-.01.02-.02Z" style="fill:#ffaa1d"/></svg>