<svg xmlns="http://www.w3.org/2000/svg" viewBox="0 0 20 20"><path d="M.36 19.64c.05-.13.08-.2.11-.28.45-1 .89-2.01 1.35-3.01.12-.26.1-.46-.06-.7C-1.92 10.29.44 2.9 6.55.62c5.63-2.1 11.88 1.31 13.2 7.18 1.22 5.45-2.27 10.88-7.74 11.98-2.67.54-5.17.05-7.47-1.4-.34-.21-.62-.26-.99-.09-.97.44-1.96.84-2.94 1.25-.06.03-.12.05-.25.09Zm15.39-6.61c.1-.29-.09-.46-.4-.56a.612.612 0 0 1-.12-.05c-.83-.29-1.58-.7-2.25-1.26-.07-.06-.24-.07-.34-.03-.44.16-.8.44-1.12.78-.35.38-.87.44-1.24.08-.81-.78-1.6-1.58-2.38-2.39-.35-.36-.32-.92.04-1.2.39-.3.63-.7.83-1.14.06-.14.03-.22-.05-.33-.3-.43-.62-.85-.87-1.3-.22-.4-.37-.84-.56-1.25-.03-.07-.13-.16-.2-.17-1.23-.11-2.5.77-2.84 1.96-.03.09-.02.21.02.29.3.68.55 1.4.92 2.04 1.1 1.92 2.62 3.51 4.31 4.92 1.18.99 2.48 1.79 3.97 2.26.13.04.3.04.43 0 1.09-.36 1.83-1.41 1.84-2.64Z"/></svg>