<svg xmlns="http://www.w3.org/2000/svg" xml:space="preserve" viewBox="0 0 32 32"><path d="m19.8 12-.4-2.7c.7-.3 1.1-1 1.1-1.8v-.1c0-.8-.5-1.6-1.3-1.8V4c0-.9-.8-1.7-1.7-1.7h-3.2c-.9 0-1.7.8-1.7 1.7v1.5c-.7.3-1.3 1-1.3 1.8v.2c0 .8.5 1.5 1.1 1.8l-.2 2.7c-.9.3-1.5 1.1-1.5 2v13.5c0 1.2.9 2.1 2.1 2.1H19c1.2 0 2.1-1 2.1-2.1V14.1c.1-1-.5-1.8-1.3-2.1zm-6.3-4c-.3 0-.5-.2-.5-.5v-.1c0-.3.2-.5.5-.5h5c.3 0 .5.2.5.5v.2c0 .2-.2.4-.5.4h-5zm.6 1.5h3.7l.4 2.4h-4.4l.3-2.4zm.1-5.5c0-.1.1-.2.2-.2h3.2c.1 0 .2.1.2.2v1.2c0 .1-.1.2-.2.2h-3.2c-.1 0-.2-.1-.2-.2V4zm5.5 23.5c0 .3-.3.6-.6.6h-6.2c-.3 0-.6-.3-.6-.6V14.1c0-.3.3-.6.6-.6h6.2c.3 0 .6.3.6.6v13.4zm-4.2-12.7c-.7.9-1.8 2.6-1.8 3.5 0 1.2 1.1 2.1 2.3 2.1s2.3-1 2.3-2.1c0-.9-1.1-2.6-1.8-3.5-.2-.3-.8-.3-1 0zm.5 4.5c-.6 0-1.1-.4-1.1-.9 0-.2.4-1.1 1.1-2.2.7 1.1 1.1 1.9 1.1 2.2 0 .5-.5.9-1.1.9z"/></svg>