<svg width="236" height="80" viewBox="0 0 236 80" xmlns="http://www.w3.org/2000/svg" xmlns:xlink="http://www.w3.org/1999/xlink">
    <defs>
        <path d="M71.666 2.113c0 1.182.89 2.19 2.132 2.19 1.174 0 2.1-1.008 2.1-2.19A2.085 2.085 0 0 0 73.798 0c-1.242 0-2.132.927-2.132 2.113m-41.818-.002v5.376C28.676 6.95 26.9 6.45 25.19 6.45c-4.58 0-7.212 2.755-7.606 7.204-.106 1.293-.106 3.838 0 5.094.394 4.406 3.305 7.386 8.106 7.386 3.446 0 6.324-1.546 7.25-2.23.57-.392.678-.789.678-1.434V2.111c0-1.074-.821-1.937-1.887-1.937-1.028 0-1.884.863-1.884 1.937M21.35 18.276c-.103-1.11-.069-3.223 0-4.195.147-2.613 1.426-3.978 4.126-3.978 1.852 0 3.627.647 4.372 1.115v9.962c-.711.54-2.556 1.29-4.087 1.29-2.739 0-4.194-1.433-4.411-4.194m32.909-9.858c-.531.362-.75.722-.75 1.47v14.086c0 1.077.89 1.94 1.888 1.94 1.063 0 1.884-.863 1.884-1.94V11.112c.811-.504 2.486-1.01 4.224-1.01 2.207 0 4.13 1.222 4.13 4.09v9.782c0 1.077.885 1.94 1.88 1.94 1.105 0 1.886-.863 1.886-1.94v-9.962c0-4.842-2.633-7.563-7.785-7.563-3.732 0-6.328 1.183-7.357 1.97M38.197 7.52c-.96.432-1.247 1.15-1.247 1.761 0 1.11 1.034 1.936 2.598 1.431.995-.357 2.418-.787 3.875-.787 2.769 0 3.946 1.04 3.946 3.478v1.18c-1.638-.391-2.85-.605-4.518-.605-4.974 0-7.216 2.833-7.216 5.95 0 3.513 2.416 6.204 7.287 6.204 3.697 0 6.4-1.332 7.398-2.01.532-.362.673-.752.673-1.398v-9.321c0-4.842-2.81-6.955-7.359-6.955-2.162 0-4.405.57-5.437 1.072m1.136 12.267c0-1.723 1.562-2.694 3.731-2.694 1.603 0 2.739.218 4.305.608v3.985c-.36.282-1.67 1.11-4.125 1.11-2.523 0-3.91-1.076-3.91-3.009M2.55 7.521c-.958.432-1.247 1.15-1.247 1.761 0 1.11 1.033 1.936 2.598 1.431.996-.357 2.42-.787 3.874-.787 2.774 0 3.946 1.04 3.946 3.478v1.18c-1.636-.391-2.843-.605-4.515-.605C2.4 13.98.147 16.625 0 19.612v.658c.152 3.343 2.566 5.863 7.276 5.863 3.701 0 6.4-1.332 7.4-2.01.53-.362.671-.752.671-1.398v-9.321c0-4.842-2.809-6.955-7.357-6.955-2.169 0-4.406.57-5.439 1.072m1.14 12.267c0-1.723 1.56-2.694 3.73-2.694 1.598 0 2.739.218 4.3.608v3.985c-.353.282-1.672 1.11-4.125 1.11-2.52 0-3.905-1.076-3.905-3.009M71.914 8.711v15.34c0 1.076.89 1.94 1.884 1.94 1.066 0 1.889-.864 1.889-1.94V8.71c0-1.074-.857-1.937-1.89-1.937-1.065 0-1.883.863-1.883 1.937" id="suntk596ya"/>
    </defs>
    <g fill="none" fill-rule="evenodd">
        <path d="M19.242 16.718a3.89 3.89 0 0 0-.232.004l-14.437-.035.006-1.89 14.355.039c3.711-.151 5.17 2.56 5.645 3.82-.656-.817-1.726-1.401-3.136-1.707a10.902 10.902 0 0 0-2.201-.23zm5.337-2.249c-.656-.818-1.726-1.402-3.136-1.705a10.794 10.794 0 0 0-2.201-.233c-.133 0-.215.004-.23.004L4.573 12.5l.006-1.89 14.355.039c3.711-.153 5.17 2.56 5.645 3.82zM21.44 8.577a10.77 10.77 0 0 0-2.2-.232c-.145 0-.227.003-.229.003L4.573 8.313l.006-1.89 14.353.039c3.708-.159 5.17 2.56 5.645 3.82-.654-.818-1.724-1.402-3.136-1.705zm7.92.846c-.059-2.332-.834-4.287-2.275-5.8-1.403-1.475-3.422-2.347-5.543-2.387l-14.83-.02C4.207 1.19 2.227 1.17.133.07L0 0v21.834h22.67c.739 0 1.331.055 1.87.175 2.183.479 3.736 1.688 4.664 2.62l.157.157V9.423zm13.627 3.114c-.013 0-1.148-.05-2.435.228-1.412.304-2.482.89-3.136 1.706.461-1.225 1.855-3.826 5.347-3.826.099 0 .2.002.303.006l14.351-.039.006 1.89-14.436.035zm0 4.186c-.013 0-1.148-.051-2.435.229-1.412.304-2.482.89-3.136 1.705.461-1.225 1.855-3.825 5.347-3.825.099 0 .2.002.303.005l14.351-.038.006 1.89-14.436.034zm.079-10.259 14.353-.038.006 1.89-14.438.035c-.01 0-1.146-.05-2.435.228-1.41.304-2.48.89-3.136 1.705.463-1.224 1.855-3.825 5.347-3.825.1 0 .2.002.303.005zm18.8-6.39c-2.096 1.099-4.075 1.12-6.58 1.145l-14.836.02c-2.12.043-4.14.912-5.544 2.387-1.44 1.514-2.2 3.463-2.258 5.797l-.005 15.37.155-.157c.93-.932 2.473-2.146 4.656-2.627.538-.12 1.132-.173 1.868-.173H62V.004l-.133.07zm-30.875 64.22c5.445 0 9.874 4.473 9.874 9.97 0 .682-.07 1.365-.207 2.036l-.01.051-.05.017c-2.978.982-9.506 3.592-9.572 3.617l-.035.015-.032-.015c-.066-.025-6.594-2.635-9.573-3.617l-.05-.017-.012-.051a10.195 10.195 0 0 1-.206-2.035 10.001 10.001 0 0 1 2.565-6.706 9.859 9.859 0 0 1 7.308-3.266zM.002 45.241l.18.197 19.256 22.365-.032.057a13.44 13.44 0 0 0-1.61 6.92l.007.152-.137-.066A31.172 31.172 0 0 1 5.287 64.091C1.831 58.92.003 52.876.003 46.61v-1.37zm61.99 0v1.368c0 6.266-1.827 12.31-5.283 17.48a31.171 31.171 0 0 1-12.38 10.777l-.137.066.008-.153a13.417 13.417 0 0 0-1.61-6.92l-.032-.056 3.294-3.826 15.982-18.561.159-.175zm-50.16-19.927.063.203 12.028 37.479-.06.038c-.5.324-.982.687-1.43 1.074-.323.276-.637.575-.934.884l-.07.074-.831-.967L.003 40.179V25.315h11.829zm50.16 0V40.18l-.561.655-20.865 24.233-.069-.074c-.297-.31-.61-.608-.934-.884a13.085 13.085 0 0 0-1.43-1.074l-.06-.039.022-.068 12.07-37.613h11.828zm-38.407 0c3.18 0 5.766 2.612 5.766 5.822v29.894l-.03.004-.049.006c-.764.1-1.526.268-2.267.506l-.086.03-11.638-36.262h8.304zm23.132 0-.082.258-11.559 36.004-.086-.03a10.126 10.126 0 0 0-.25-.075l-.016-.008a13.928 13.928 0 0 0-1.585-.36l-.047-.008c-.01-.002-.017-.004-.024-.004-.111-.02-.22-.035-.332-.05l-.078-.01-.013-.082V31.137c0-3.21 2.586-5.822 5.764-5.822h8.308z" fill="#FFF"/>
        <g fill="#FFF">
            <path d="M75.432 35.093c0-1.185.87-2.003 2.077-2.003 1.207 0 2.077.818 2.077 2.003 0 1.157-.87 1.975-2.077 1.975-1.207 0-2.077-.818-2.077-1.975zm-1.067 16.732c1.15-.14 1.6-.818 1.6-1.834v-6.687c0-1.157-.028-1.862-.842-1.862H74v-.903c3.313-.536 5.727-1.41 5.727-1.41l.084.084s-.253.931-.253 3.216v7.562c0 .847-.14 1.524-.14 1.524l2.245.254-.112.846-7.186.17v-.96zM82.814 51.826c1.15-.142 1.6-.819 1.6-1.835v-6.687c0-1.157-.028-1.862-.842-1.862h-1.123v-.903c3.312-.536 5.67-1.41 5.67-1.41l.084.084s-.252.62-.392 3.132c.982-1.298 2.694-2.822 4.996-2.822 1.937 0 3.34 1.073 3.34 3.81v6.658c0 .847-.14 1.496-.14 1.496l2.246.282-.112.847-6.85.169v-.96c.954-.14 1.263-.818 1.263-1.834v-5.558c0-1.975-.477-2.427-1.571-2.427-.927 0-2.078.339-2.976 1.044v6.941c0 .847-.14 1.496-.14 1.496l1.768.282-.112.847-6.71.169v-.96zM100.498 43.502c0-.819.084-1.834.084-1.834h-1.797v-1.213s1.292-.254 1.965-.875l1.067-3.189 2.414.085.085.085s-.253.62-.253 2.765v.536h3.986l-.197 1.721h-3.424l-.337.339v6.264c0 1.636.309 2.595 1.768 2.595 1.235 0 2.386-.648 2.386-.648l.45.733s-1.881 2.173-4.773 2.173c-2.02 0-3.424-1.073-3.424-3.697v-5.84zM112.792 44.687l4.604-.593s-.085-3.216-2.106-3.216c-1.488 0-2.386 1.75-2.498 3.809m3.088-5.164c2.554 0 4.912 1.496 5.024 5.023 0 0-1.29.451-1.852.536l-5.951.903-.253.338c.309 2.201 1.488 4.176 4.351 4.176 2.021 0 3.34-1.128 3.34-1.128l.337.818s-1.516 2.85-5.052 2.85c-4.127 0-6.344-3.16-6.344-6.518 0-3.866 2.75-6.998 6.4-6.998M122.56 51.826c1.15-.142 1.6-.819 1.6-1.835v-6.658c0-1.157-.028-1.863-.842-1.863h-1.123v-.903c3.312-.536 5.67-1.439 5.67-1.439l.084.085s-.252.62-.392 3.442c0 0 1.768-3.132 3.985-3.132 1.18 0 1.74.847 1.74 1.693 0 .903-.645 1.806-1.796 1.806-.898 0-1.038-.564-1.74-.564-.898 0-1.993.903-1.993.903v6.63c0 .847-.14 1.524-.14 1.524l2.526.254-.112.847-7.467.169v-.96zM134.726 51.826c1.151-.142 1.6-.819 1.6-1.835v-6.687c0-1.157-.028-1.862-.842-1.862h-1.123v-.903c3.313-.536 5.67-1.41 5.67-1.41l.085.084s-.253.62-.393 3.132c.982-1.298 2.695-2.822 4.996-2.822 1.937 0 3.34 1.073 3.34 3.81v6.658c0 .847-.14 1.496-.14 1.496l2.246.282-.112.847-6.85.169v-.96c.955-.14 1.264-.818 1.264-1.834v-5.558c0-1.975-.477-2.427-1.572-2.427-.926 0-2.077.339-2.976 1.044v6.941c0 .847-.14 1.496-.14 1.496l1.768.282-.112.847-6.709.169v-.96zM157.968 49.907V46.38l-.758.14c-1.46.255-2.695 1.045-2.695 2.653 0 .875.393 1.637 1.348 1.637.758 0 1.544-.423 2.105-.903m-.954-4.656.982-.141c0-.931 0-2.285-.14-2.962-.169-.819-.59-1.355-1.32-1.355-1.6 0-2.694 3.02-2.694 3.02h-1.292l-.617-2.484s2.274-1.806 5.95-1.806c2.948 0 3.678 1.129 3.678 4.035v6.349c0 .846.14 1.326.674 1.326.59 0 1.235-.48 1.235-.48l.45.762s-1.376 1.524-3.482 1.524c-1.431 0-2.357-.677-2.357-1.89v-.452s-1.46 2.342-3.93 2.342c-1.657 0-3.285-1.044-3.285-3.16 0-2.85 3.284-4.205 6.148-4.628M166.08 43.502c0-.819.084-1.834.084-1.834h-1.797v-1.213s1.291-.254 1.965-.875l1.067-3.189 2.414.085.084.085s-.253.62-.253 2.765v.536h3.987l-.197 1.721h-3.425l-.336.339v6.264c0 1.636.308 2.595 1.768 2.595 1.235 0 2.386-.648 2.386-.648l.45.733s-1.881 2.173-4.773 2.173c-2.02 0-3.425-1.073-3.425-3.697v-5.84zM176.24 35.093c0-1.185.87-2.003 2.078-2.003 1.207 0 2.077.818 2.077 2.003 0 1.157-.87 1.975-2.077 1.975-1.207 0-2.077-.818-2.077-1.975zm-1.066 16.732c1.15-.14 1.6-.818 1.6-1.834v-6.687c0-1.157-.028-1.862-.842-1.862h-1.123v-.903c3.312-.536 5.727-1.41 5.727-1.41l.084.084s-.253.931-.253 3.216v7.562c0 .847-.14 1.524-.14 1.524l2.245.254-.112.846-7.186.17v-.96zM190.528 51.797c2.358 0 2.835-3.47 2.78-5.474-.029-2.539-.927-5.558-3.173-5.558-1.993 0-2.863 2.426-2.863 5.05 0 2.737.954 5.982 3.256 5.982m-.084-12.274c4.21 0 6.765 2.596 6.765 6.264 0 3.555-2.358 7.252-7.13 7.252-4.07 0-6.681-2.709-6.681-6.49 0-3.33 2.05-7.026 7.046-7.026M198.836 51.826c1.151-.142 1.6-.819 1.6-1.835v-6.687c0-1.157-.028-1.862-.842-1.862h-1.123v-.903c3.313-.536 5.67-1.41 5.67-1.41l.085.084s-.253.62-.393 3.132c.982-1.298 2.694-2.822 4.996-2.822 1.937 0 3.34 1.073 3.34 3.81v6.658c0 .847-.14 1.496-.14 1.496l2.246.282-.112.847-6.85.169v-.96c.955-.14 1.264-.818 1.264-1.834v-5.558c0-1.975-.477-2.427-1.572-2.427-.927 0-2.077.339-2.976 1.044v6.941c0 .847-.14 1.496-.14 1.496l1.768.282-.112.847-6.709.169v-.96zM222.078 49.907V46.38l-.758.14c-1.46.255-2.695 1.045-2.695 2.653 0 .875.393 1.637 1.348 1.637.757 0 1.544-.423 2.105-.903m-.955-4.656.983-.141c0-.931 0-2.285-.14-2.962-.169-.819-.59-1.355-1.32-1.355-1.6 0-2.694 3.02-2.694 3.02h-1.292l-.617-2.484s2.274-1.806 5.95-1.806c2.948 0 3.678 1.129 3.678 4.035v6.349c0 .846.14 1.326.674 1.326.59 0 1.235-.48 1.235-.48l.45.762s-1.376 1.524-3.482 1.524c-1.431 0-2.358-.677-2.358-1.89v-.452s-1.46 2.342-3.93 2.342c-1.656 0-3.284-1.044-3.284-3.16 0-2.85 3.284-4.205 6.147-4.628M228.702 51.826c1.15-.142 1.6-.819 1.6-1.835V35.8c0-1.157-.028-1.862-.842-1.862h-1.04v-.903c4.492-.903 5.671-1.44 5.671-1.44l.084.085s-.28 1.016-.28 3.189V49.99c0 .847-.14 1.524-.14 1.524l2.245.254-.112.847-7.186.169v-.96zM74.845 75.673h.929c.197 2.404 1.828 3.14 3.067 3.14 1.04 0 1.772-.567 1.772-1.556 0-2.8-5.964-2.404-5.964-6.787 0-2.546 2.025-4.016 4.782-4.016 1.66 0 3.883.537 3.883.537l-.647 3.196h-.957c-.14-2.178-1.463-2.546-2.279-2.546-1.013 0-1.66.595-1.66 1.528 0 2.856 5.937 2.205 5.937 6.702 0 2.8-2.223 4.129-4.98 4.129-1.688 0-4.39-.537-4.39-1.98 0-.678.507-2.347.507-2.347M91.98 66.454c1.688 0 4.53.565 4.53 2.262 0 .707-.535 1.386-1.38 1.386-1.603 0-1.547-2.404-3.544-2.404-1.913 0-2.954 2.178-2.954 4.666 0 2.857 1.378 5.091 4.276 5.091 1.942 0 3.32-.99 3.32-.99l.338.82S95.046 80 91.389 80c-3.91 0-6.105-3.11-6.105-6.42 0-3.365 2.335-7.126 6.696-7.126M97.804 78.784c1.154-.141 1.604-.82 1.604-1.838V62.72c0-1.16-.028-1.867-.845-1.867h-1.04v-.905c4.501-.905 5.683-1.442 5.683-1.442l.084.085s-.281 1.018-.281 3.195v4.92c0 1.444-.113 2.235-.113 2.574.985-1.3 2.617-2.827 4.924-2.827 1.942 0 3.348 1.074 3.348 3.818v6.674c0 .848-.14 1.499-.14 1.499l2.25.282-.112.849-6.865.17v-.962c.957-.141 1.266-.82 1.266-1.838v-5.572c0-1.98-.478-2.432-1.576-2.432-.928 0-2.082.34-2.982 1.046v6.958c0 .848-.14 1.527-.14 1.527l1.772.254-.113.849-6.724.17v-.962zM121.381 78.756c2.364 0 2.842-3.479 2.785-5.487-.028-2.545-.928-5.57-3.179-5.57-1.997 0-2.87 2.431-2.87 5.061 0 2.743.957 5.996 3.264 5.996m-.084-12.303c4.22 0 6.78 2.602 6.78 6.279 0 3.563-2.363 7.268-7.146 7.268-4.08 0-6.696-2.715-6.696-6.504 0-3.338 2.054-7.043 7.062-7.043M136.743 78.756c2.363 0 2.842-3.479 2.785-5.487-.028-2.545-.928-5.57-3.18-5.57-1.996 0-2.869 2.431-2.869 5.061 0 2.743.957 5.996 3.264 5.996m-.084-12.303c4.22 0 6.78 2.602 6.78 6.279 0 3.563-2.363 7.268-7.146 7.268-4.08 0-6.696-2.715-6.696-6.504 0-3.338 2.053-7.043 7.062-7.043M144.762 78.784c1.153-.141 1.603-.82 1.603-1.838V62.72c0-1.16-.028-1.867-.844-1.867h-1.04v-.905c4.501-.905 5.682-1.442 5.682-1.442l.085.085s-.281 1.018-.281 3.195v15.159c0 .848-.141 1.527-.141 1.527l2.25.254-.112.849-7.202.17v-.962z"/>
        </g>
        <use fill="#FFF" xlink:href="#suntk596ya" transform="translate(74.446)"/>
    </g>
</svg>
